<svg id="Ñëîé_1" data-name="Ñëîé 1" xmlns="http://www.w3.org/2000/svg" xmlns:xlink="http://www.w3.org/1999/xlink" viewBox="0 0 325.89 400"><defs><style>.cls-1{fill:#b2d3ea;}.cls-2{fill:#983be9;}.cls-3{fill:#8a2ae3;}.cls-4{fill:#b45ef4;}.cls-5{fill:url(#Áåçûìÿííûé_ãðàäèåíò_242);}.cls-6{fill:#721bd5;}.cls-7{fill:#eaeaea;}.cls-8{fill:#173d7a;}.cls-9{fill:#e8a200;}.cls-10{fill:#fdd762;}.cls-11{fill:#ffc2b0;}.cls-12{fill:#fff;}.cls-13{fill:#ea9c92;}.cls-14{fill:#ff2c9c;}.cls-15{fill:#6614cf;}.cls-16{fill:#396caa;}.cls-17{fill:#5793ce;}.cls-18{fill:#274f89;}.cls-19{fill:#d4ecff;}.cls-20{fill:#d8892b;}.cls-21{fill:#d29fff;}.cls-22{fill:#7e23dc;}.cls-23{fill:#f2b42a;}.cls-24{fill:#eead00;}</style><radialGradient id="Áåçûìÿííûé_ãðàäèåíò_242" cx="-39.18" cy="156.09" r="49.45" gradientUnits="userSpaceOnUse"><stop offset="0" stop-color="#01c8ef"/><stop offset="0.09" stop-color="#03bee9"/><stop offset="0.24" stop-color="#08a5d7"/><stop offset="0.43" stop-color="#107bbb"/><stop offset="0.45" stop-color="#1177b8"/><stop offset="1" stop-color="#112564"/></radialGradient></defs><title>Artboard 1001</title><ellipse class="cls-1" cx="38.88" cy="223" rx="23.04" ry="13.3"/><path class="cls-2" d="M49.49,214.92a15.48,15.48,0,0,0-2.09-1h0l-4-1.79.3.7a26.1,26.1,0,0,0-9.45-.1l.19-.78-4.74,2.1h0a19.38,19.38,0,0,0-1.77.87c-6,3.44-6,9,0,12.44s15.6,3.44,21.55,0S55.44,218.36,49.49,214.92Z"/><path class="cls-3" d="M43.77,218.16a11.16,11.16,0,0,1-10.1,0c-2.79-1.61-2.79-4.22,0-5.83a11.16,11.16,0,0,1,10.1,0C46.56,213.94,46.56,216.55,43.77,218.16Z"/><path class="cls-3" d="M38.72,216.36h0a2.43,2.43,0,0,1-2.43-2.43V183.24h4.85v30.69A2.42,2.42,0,0,1,38.72,216.36Z"/><path class="cls-2" d="M40.42,184.36a3.92,3.92,0,0,1-3.5,0,1.07,1.07,0,0,1,0-2,3.86,3.86,0,0,1,3.5,0A1.07,1.07,0,0,1,40.42,184.36Z"/><path class="cls-3" d="M38.72,184.3h0a2,2,0,0,1-2-2V153.48h3.93v28.85A2,2,0,0,1,38.72,184.3Z"/><path class="cls-4" d="M67,168.59v-1.12l1.59-.24,1.79-1.33a1.19,1.19,0,0,1,1.17-.05l1.32.77,1.31-.19v1.14h0c0,.13-.1.26-.3.35l-4.16,1.85a1.3,1.3,0,0,1-1.09,0l-1.38-.8a.4.4,0,0,1-.24-.34Z"/><path class="cls-3" d="M67.19,167.16l3.21-2.4a1.16,1.16,0,0,1,1.17,0L74,166.1c.33.19.3.51-.08.68l-4.16,1.85a1.3,1.3,0,0,1-1.09,0l-1.38-.8C67,167.62,66.93,167.35,67.19,167.16Z"/><path class="cls-4" d="M61.77,172.61a2.55,2.55,0,0,0,1.29-.32l5-2.88a.58.58,0,0,0,.21-.78.58.58,0,0,0-.79-.21l-5,2.88a1.68,1.68,0,0,1-1.42,0l-8.29-4.81a.58.58,0,0,0-.79.22.57.57,0,0,0,.21.78l8.3,4.8A2.48,2.48,0,0,0,61.77,172.61Z"/><polygon class="cls-5" points="13.8 162.06 21.81 157.4 17.32 155.37 13.48 158.1 13.8 162.06"/><path class="cls-3" d="M65.24,155.14a10.39,10.39,0,0,1-1.34-.83L46.83,141.79c-3.09-2.25-6.26-2.84-8.71-1.59a1.08,1.08,0,0,0-.18.11h0L14.34,154l2.12.71,8.26,3.74,11.23,8,8.86,4.71.41.08c2.06-1.74,4.38-3.23,5.65-5.77,2.19-3.84,8.3-4.94,11.9-8.06.36.23.72.45,1.08.64A7.79,7.79,0,0,0,65.24,155.14Z"/><path class="cls-6" d="M72.73,149.5a1.54,1.54,0,0,0-1,.34h0L48.69,163.19l.84,3.45.87-.41c-1.32,2.06-3.35,3.41-5.18,5l2.6.55,22.6-13.14.31-.14a5.56,5.56,0,0,0,.87-.55l0,0h0c1.72-1.33,2.69-3.64,2.69-6.53v-.27A1.59,1.59,0,0,0,72.73,149.5Z"/><path class="cls-7" d="M41.14,139.56A9.64,9.64,0,0,1,45.67,141,9.64,9.64,0,0,0,41.14,139.56Z"/><path class="cls-4" d="M51.64,164.27V164a1.59,1.59,0,1,0-3.17,0v.27c0,2.12-.67,3.67-1.85,4.27s-3.34.18-5.4-1.33L24.15,154.7c-2.62-1.92-5.32-2.62-7.57-2l14.1-8.18L14.34,154l2.12.71,8.26,3.74,11.23,8,8.86,4.71.41.08c2.06-1.74,4.38-3.23,5.65-5.77a6.58,6.58,0,0,1,.77-1.07Z"/><path class="cls-2" d="M44.81,172.52a10.3,10.3,0,0,1-6-2.24L21.79,157.77c-2.05-1.5-4.07-2-5.4-1.33-1.17.6-1.85,2.16-1.85,4.28a1.59,1.59,0,0,1-3.17,0c0-3.36,1.31-5.95,3.59-7.1,2.45-1.25,5.62-.66,8.71,1.59l17.07,12.51c2,1.51,4.07,2,5.4,1.33,1.17-.59,1.85-2.15,1.85-4.27v-.27a1.59,1.59,0,1,1,3.17,0v.27c0,3.36-1.31,5.94-3.59,7.1A6.05,6.05,0,0,1,44.81,172.52Z"/><path class="cls-8" d="M31.39,200.49s-3.22-1.62-5.19.79-4.8,8.12-4.89,12,3.05,3.59,4.92,2.68,7.3-8.81,7.63-10.36a5.39,5.39,0,0,0-.91-4C32.43,201.11,31.39,200.49,31.39,200.49Z"/><path class="cls-9" d="M32.09,199.71l.15,3.33a1.91,1.91,0,0,1-.94,1.74,3.69,3.69,0,0,1-2.48.38c-2.42-.39-2.64-1.08-2.81-4.41S32.09,199.71,32.09,199.71Z"/><path class="cls-8" d="M19.62,194.08s-3.22-1.62-5.19.8-4.8,8.11-4.89,12,3.05,3.59,4.92,2.68,7.3-8.81,7.63-10.35a5.39,5.39,0,0,0-.91-4C20.66,194.71,19.62,194.08,19.62,194.08Z"/><path class="cls-9" d="M20.32,193.31l.15,3.33a1.9,1.9,0,0,1-.94,1.73,3.68,3.68,0,0,1-2.48.39c-2.42-.39-2.64-1.08-2.81-4.41S20.32,193.31,20.32,193.31Z"/><path class="cls-10" d="M49,132.15c-.95-15.48-16.77,2.28-16.77,2.28L21.42,145l-9.75,10.71a9.57,9.57,0,0,0-2.42,7.72l3.94,30a3,3,0,0,0,3,2.56,9.14,9.14,0,0,0,1.46-.13A3.67,3.67,0,0,0,20.87,192L20.15,164l20.47-12.34S50,147.64,49,132.15Z"/><path class="cls-10" d="M60.78,138.05c-1-15.48-16.77,2.28-16.77,2.28L33.19,150.94l-9.75,10.71A9.57,9.57,0,0,0,21,169.37l3.94,30a3,3,0,0,0,3,2.56,9.14,9.14,0,0,0,1.46-.13,3.67,3.67,0,0,0,3.26-3.89l-.72-28.08,20.47-12.35S61.73,153.54,60.78,138.05Z"/><path class="cls-2" d="M51.42,88.35c12,5,11.75,12.06,11.75,12.06s-2.35,26-1.54,43.34C62,151,23.08,151.56,28.88,132.2c6.83-22.82,4.27-41.29,7.47-44.08S48.32,87.06,51.42,88.35Z"/><path class="cls-11" d="M55.28,94.63c-.63,2.44-3.82,3.72-7.12,2.87s-5.49-3.52-4.86-6,3.82-3.72,7.13-2.87S55.91,92.2,55.28,94.63Z"/><path class="cls-12" d="M50.2,98.34A8.79,8.79,0,0,1,48,98.05c-3.61-.92-6-3.91-5.26-6.64S47,87.2,50.57,88.13s6,3.91,5.27,6.65a4.57,4.57,0,0,1-2.9,3A7.3,7.3,0,0,1,50.2,98.34ZM48.37,89c-2.22,0-4.08,1-4.51,2.7-.55,2.13,1.44,4.48,4.44,5.25a6.81,6.81,0,0,0,4.21-.17,3.45,3.45,0,0,0,2.21-2.28c.55-2.12-1.44-4.48-4.44-5.25A7.54,7.54,0,0,0,48.37,89Z"/><path class="cls-11" d="M46.61,87.81a28.09,28.09,0,0,1-.1,4.28c-.06,1.19,4.12,2.31,5.2,1.23s.65-2.21.91-6.27S46.61,87.81,46.61,87.81Z"/><path class="cls-13" d="M52.62,87.05s-1,3.77-6.11,5.21l.08-3.42Z"/><path class="cls-11" d="M55.83,77.47a9.23,9.23,0,1,1-11.24-6.63A9.24,9.24,0,0,1,55.83,77.47Z"/><path class="cls-13" d="M49,80.12s-5.08,2.18-8.6,2.2-2.75-2.92-2.75-2.92l10.45-1.51Z"/><path class="cls-14" d="M39.37,80.69s4.42-1.88,8.31-1.09A4.08,4.08,0,0,1,50,81a1.32,1.32,0,0,0,.71.51c.68.16,1.81-2.7,3.15-2.76s2.23.88,1.13,2.64-.72,3.72-.22,4,5.86-3.82,1.14-13.18-16.73-4.31-18.59-2.42c0,0-2,1.72-3.57.19C33.78,70,32,83.4,39.37,80.69Z"/><path class="cls-11" d="M56.45,119.39v7a2.84,2.84,0,0,1-.94,2.11L41.09,141.68l1.64,2.51,19.05-13.82a3.82,3.82,0,0,0,1.57-2.73l1.29-12.24Z"/><path class="cls-2" d="M62.16,96.9s4.37,6.58,6,23.9c0,0-7.47,2.42-11.71,1S62.16,96.9,62.16,96.9Z"/><path class="cls-15" d="M55.65,105.22s-1.72,9.17-1.81,13.48a2.73,2.73,0,0,0,1.81,2.65h0Z"/><path class="cls-8" d="M51.9,150.81l-3.18-.42L28.14,138.51a2.88,2.88,0,0,0-2.58.11L11,147l-1.93-.25v1.92h0a.74.74,0,0,0,.45.67l23.32,13.47a2.86,2.86,0,0,0,2.57-.11l15.89-9.16a1,1,0,0,0,.62-.87h0Z"/><path class="cls-16" d="M36.44,143.3,35,142.46H18.9L11,147l-1.93-.25v1.92h0a.74.74,0,0,0,.45.67l23.32,13.47a2.45,2.45,0,0,0,1.33.25Z"/><path class="cls-17" d="M9.91,146.89l-.86-.11v1.92h0a.74.74,0,0,0,.45.67l.41.24Z"/><path class="cls-18" d="M33.05,163a3,3,0,0,0,2.19-.14v-3.26H33.05Z"/><path class="cls-12" d="M32.82,160.92,9.5,147.46c-.66-.39-.58-1.05.18-1.49l15.88-9.17a2.84,2.84,0,0,1,2.58-.1l23.32,13.46c.66.38.58,1.05-.18,1.49l-15.89,9.16A2.86,2.86,0,0,1,32.82,160.92Z"/><path class="cls-19" d="M32.42,158.88,13,147.68c-.55-.31-.48-.87.15-1.23l8.52-4.79a2.42,2.42,0,0,1,2.14-.09l19.39,11.2c.55.32.48.87-.15,1.24l-8.51,4.78A2.38,2.38,0,0,1,32.42,158.88Z"/><path class="cls-11" d="M26.46,136.36,26.22,138a11.94,11.94,0,0,0,.11,4.13l.28,1.41a2,2,0,0,0,1.6,1.57h0a1.1,1.1,0,0,0,1.29-1l.39-3.44s.88,1.15,1.3,1.15-.47-3.44-1.43-5.39S26.46,136.36,26.46,136.36Z"/><path class="cls-11" d="M34.37,110.78l-2.5,5a9.85,9.85,0,0,0-1,3.76l-1.08,16.94-3.3-.08-1.49-19a6.85,6.85,0,0,1,.08-1.75l1.71-9.65Z"/><path class="cls-8" d="M32,162.21l-2-2.55L9.51,147.75a2.82,2.82,0,0,1-1.19-2.28V128.63l-1.18-1.54,1.11-.64h0a.75.75,0,0,1,.81,0L32.38,140a2.85,2.85,0,0,1,1.19,2.28l0,18.34a1,1,0,0,1-.44,1h0Z"/><path class="cls-16" d="M17.81,152.56l-1.46-.85-8-13.93v-9.15l-1.18-1.54,1.11-.64h0a.75.75,0,0,1,.81,0L32.38,140a2.41,2.41,0,0,1,.88,1Z"/><path class="cls-17" d="M7.68,127.77l-.53-.68,1.11-.64h0a.75.75,0,0,1,.81,0l.41.24Z"/><path class="cls-18" d="M32.59,140.14a2.93,2.93,0,0,1,1,2l-2.28,1.32-1.09-1.9Z"/><path class="cls-12" d="M31.27,140.63,8,127.14c-.66-.39-1.2,0-1.2.9l0,18.34a2.87,2.87,0,0,0,1.2,2.28l23.3,13.49c.66.39,1.2,0,1.2-.9l0-18.34A2.85,2.85,0,0,0,31.27,140.63Z"/><path class="cls-11" d="M42.73,144.19l-.38.77a5.19,5.19,0,0,1-1.94,2.16l-2.32,1.43a2.3,2.3,0,0,1-2.36,0l-.08,0a1.39,1.39,0,0,1-.2-2.14l2.42-2.49s-1.36,1-1.74.62,1.32-1.81,2.55-1.86a4.87,4.87,0,0,0,2.41-1Z"/><path class="cls-2" d="M36.59,88.08s-8.87,9.65-12.44,18.51a18.08,18.08,0,0,0,10.45,7.6C42,116.34,36.59,88.08,36.59,88.08Z"/><path class="cls-15" d="M32.93,113.62l1.44-13.89-3.39,13Q31.9,113.22,32.93,113.62Z"/><path class="cls-12" d="M43.24,86.14l-2.39-.66a5.78,5.78,0,0,0,2.8,2.25c1.66.45,1.92-1,1.92-1Z"/><ellipse class="cls-1" cx="240.6" cy="320.6" rx="23.23" ry="13.41"/><path class="cls-1" d="M163.08,315.28l-80-46.17c-2.38-1.38-2.08-3.77.67-5.36L212.71,189c2.74-1.58,6.9-1.75,9.27-.38l80,46.17c2.38,1.37,2.08,3.77-.66,5.35L172.36,314.89C169.61,316.48,165.46,316.65,163.08,315.28Z"/><path class="cls-19" d="M325.89,301.4l-66.15,41A15.71,15.71,0,0,0,254.63,364l22.22,36h49Z"/><path class="cls-15" d="M252.35,177.17s-.53,10.92-1.36,18.26-18.5-5.64-18.5-5.64v-8.35Z"/><path class="cls-8" d="M242.94,313c-.27.67-4.84,6.24-9.42,7.63a10.35,10.35,0,0,1-4.21.58,1.39,1.39,0,0,1-1.13-1.84,17.43,17.43,0,0,1,8.79-9.69C244.73,305.86,242.94,313,242.94,313Z"/><path class="cls-8" d="M244.47,315.17a37.73,37.73,0,0,0-2.26,7.44c-.32,2.06.81,4.74,1.74,6.52a1.91,1.91,0,0,0,3,.51,11,11,0,0,0,3.72-7.1c.53-5.71,0-6.7,0-6.7Z"/><path class="cls-10" d="M255.5,246.19a108,108,0,0,1,0,15.16c-.6,8-2.74,45.21-3.14,54.17,0,0,.2,2.71-5.05,2.12s-4.83-3.61-4.83-3.61-7.37-.1-7.6-4.45-7.56-51.91-7.56-69Z"/><polygon class="cls-11" points="229.86 209.03 225.61 235.04 221.74 234.97 222.09 211.13 229.86 209.03"/><path class="cls-3" d="M231.64,186s-5.74-.15-7.73,8.15-3.56,18.68-1.83,19.54c5.22,2.59,8.52-.44,8.52-.44Z"/><path class="cls-2" d="M229.93,186.35a4.69,4.69,0,0,1,3.09-.18c4.89,1.41,23.28,6.8,26.31,9.4,3.5,3-5.25,19.8-5.12,25.32s.74,12,1.23,18,1.15,9.28-3.75,11.83-13.28,2.67-19.54-2.11-5.13-8-4.87-11.5,2.39-18.46,2.21-22.71a16.07,16.07,0,0,1-3.84-4.42c-1.64-2.79,1.25-7.92,2.45-11.25s-.68-7.14-.31-9.86A3.08,3.08,0,0,1,229.93,186.35Z"/><path class="cls-12" d="M235.8,192.08c-.38,3,2.39,5.88,6.21,6.37s7.22-1.57,7.61-4.6-2.39-5.88-6.21-6.37S236.19,189.05,235.8,192.08Z"/><path class="cls-11" d="M237.77,192.33c-.27,2.16,1.71,4.2,4.44,4.55s5.16-1.12,5.44-3.29-1.71-4.2-4.44-4.55S238.05,190.17,237.77,192.33Z"/><path class="cls-11" d="M240.48,185.22s3.32-2.73,4-1.34,1.18,7.31,1.18,7.31L239.05,193l1-6S238.73,185.83,240.48,185.22Z"/><path class="cls-11" d="M230.18,178.72a9.84,9.84,0,1,0,9.25-10.4A9.85,9.85,0,0,0,230.18,178.72Z"/><path class="cls-13" d="M244.91,185.6c.06.31.12.64.17,1-.66,3.42-5.78,4.92-5.78,4.92l.75-4.55s-.62-.53-.44-1C241.63,185.26,244.19,184.69,244.91,185.6Z"/><path class="cls-11" d="M230.18,178.72a9.84,9.84,0,1,0,9.25-10.4A9.85,9.85,0,0,0,230.18,178.72Z"/><polygon class="cls-11" points="264.25 219.8 263.15 246.13 259.3 246.53 256.8 222.82 264.25 219.8"/><path class="cls-3" d="M251.6,217.6c1.28-5.63,3.79-18,3.79-18l1.08,12.36c-1.24,3.66-2.31,7-2.26,9,.07,3.23.32,6.81.6,10.42h0S250.33,223.22,251.6,217.6Z"/><path class="cls-4" d="M258.6,195s3.07,1.17,4.82,10.63,3,18.93-.06,20.15-5.71,2.14-6.62-.39-1.48-14.72-1.59-19.1S254.86,195.89,258.6,195Z"/><path class="cls-20" d="M242.48,314a16.23,16.23,0,0,1-2.1-.22h0l-1.45-57.9Z"/><path class="cls-2" d="M248.06,282.75l2.05-2.67,21.54-12.47a3,3,0,0,0,1.25-2.4l0-17.63,1.24-1.62-1.17-.67h0a.76.76,0,0,0-.84.05l-24.42,14.13a3,3,0,0,0-1.25,2.39l0,19.21a1.1,1.1,0,0,0,.46,1h0Z"/><path class="cls-21" d="M263,272.64l1.54-.89,8.4-14.59v-9.58l1.24-1.62-1.17-.67h0a.76.76,0,0,0-.84.05l-24.42,14.13a2.55,2.55,0,0,0-.92,1.08Z"/><path class="cls-21" d="M273.57,246.68l.55-.72-1.17-.67h0a.76.76,0,0,0-.84.05l-.43.24Z"/><path class="cls-2" d="M247.47,259.63a3.14,3.14,0,0,0-1,2.05l2.39,1.38,1.14-2Z"/><path class="cls-4" d="M248.85,260.14,273.27,246c.69-.4,1.25,0,1.25.94l0,19.21a3,3,0,0,1-1.25,2.39l-24.41,14.14c-.69.4-1.25,0-1.25-.94l0-19.21A3,3,0,0,1,248.85,260.14Z"/><path class="cls-11" d="M263.12,245.91s1,6.15.87,8.12-1.21,5.22-2,5.15,0-7.92-1.43-7.14-1.55,2.12-2.19,1.65,1.11-7.18.65-10.09S263.12,245.91,263.12,245.91Z"/><path class="cls-11" d="M221.74,235s-1,6.15-.87,8.12,1.21,5.21,2,5.15,0-7.92,1.43-7.14,1.55,2.12,2.19,1.65-1.11-7.18-.64-10.09S221.74,235,221.74,235Z"/><path class="cls-13" d="M236.23,179c-4.94,1.75-5.9.68-5.95.63,0-.3-.08-.6-.1-.91a9.9,9.9,0,0,1,.33-3.14l12.81-1.73A14,14,0,0,1,236.23,179Z"/><path class="cls-15" d="M229.83,168.92c1.16-1,5.36-5.93,12.88-4.77,4.7.73,8.66,3.94,9.54,11.25a16.76,16.76,0,0,1-4.55,13.37,3.78,3.78,0,0,1-.53-.27c-1.88-1.24-2.09-1.92-2.09-1.93l-.41-3.73a1,1,0,0,1,.94-1A1.88,1.88,0,0,0,247,181c1.08-1.42.59-3.62-1.58-3.7a1.65,1.65,0,0,1-1.72-1.23.89.89,0,0,0-1.15-.6c-2.46.89-8.52,2.81-12.42,1.7C225.13,175.73,228.67,169.91,229.83,168.92Z"/><path class="cls-12" d="M235.44,183.45l-3-.83a7.25,7.25,0,0,0,3.53,2.84c2.1.57,2.43-1.2,2.43-1.2Z"/><polygon class="cls-21" points="258 253.5 260.57 252.03 259.61 253.6 258.31 254.08 258 253.5"/><path class="cls-8" d="M204.91,85.86l-70.09-42.1a9.43,9.43,0,0,0-8.95-.78h0l-6.66,2.42h5.08a19.46,19.46,0,0,0-2.24,5.82l-37,170c-2.1,9.63,1.82,20.82,8.76,25l70.09,42.1a11.54,11.54,0,0,0,2.24,1l-2.77,4.22,5.88-2h0c3.45-1.55,6.25-5.3,7.43-10.67l37-170C215.77,101.22,211.85,90,204.91,85.86Z"/><path class="cls-19" d="M154,292.92l-70.09-42.1c-6.94-4.17-10.87-15.36-8.77-25l37.06-170c2.1-9.63,9.43-14.06,16.37-9.89l70.09,42.11c6.94,4.17,10.87,15.35,8.77,25L170.4,283C168.3,292.66,161,297.09,154,292.92Z"/><path class="cls-12" d="M154.15,288.08,85.71,247c-5.4-3.24-8.45-11.94-6.82-19.42l36.86-169c1.63-7.48,7.33-10.93,12.73-7.68l68.44,41.11c5.4,3.24,8.45,11.94,6.82,19.43l-36.86,169C165.25,287.88,159.55,291.32,154.15,288.08Z"/><path class="cls-19" d="M148.48,86l-7.81-4.51a2.23,2.23,0,0,1-.95-2.31h0a1.09,1.09,0,0,1,1.67-.8l7.81,4.51a2.23,2.23,0,0,1,1,2.31h0A1.09,1.09,0,0,1,148.48,86Z"/><path class="cls-19" d="M167.08,96.75,155.56,90.1a2.23,2.23,0,0,1-.95-2.31h0a1.09,1.09,0,0,1,1.67-.8l11.52,6.65a2.23,2.23,0,0,1,.95,2.31h0A1.09,1.09,0,0,1,167.08,96.75Z"/><path class="cls-19" d="M134.87,122.46,127.06,118a2.24,2.24,0,0,1-1-2.31h0a1.09,1.09,0,0,1,1.67-.8l7.81,4.51a2.23,2.23,0,0,1,.95,2.31h0A1.09,1.09,0,0,1,134.87,122.46Z"/><path class="cls-19" d="M151.45,132l-11.52-6.65a2.23,2.23,0,0,1-1-2.31h0a1.09,1.09,0,0,1,1.67-.8l11.52,6.65a2.23,2.23,0,0,1,1,2.31h0A1.09,1.09,0,0,1,151.45,132Z"/><path class="cls-19" d="M125.45,80.09l-4.88-2.81a2.25,2.25,0,0,1-1-2.31h0a1.09,1.09,0,0,1,1.68-.8L126.16,77a2.25,2.25,0,0,1,1,2.32h0A1.08,1.08,0,0,1,125.45,80.09Z"/><path class="cls-19" d="M140.48,96.16l-14.91-8.61a2.23,2.23,0,0,1-.95-2.31h0a1.09,1.09,0,0,1,1.67-.8l14.91,8.61a2.23,2.23,0,0,1,1,2.31h0A1.09,1.09,0,0,1,140.48,96.16Z"/><path class="cls-19" d="M127.44,103.4l-4.87-2.81a2.25,2.25,0,0,1-1-2.32h0a1.08,1.08,0,0,1,1.67-.79l4.88,2.81a2.25,2.25,0,0,1,1,2.31h0A1.09,1.09,0,0,1,127.44,103.4Z"/><path class="cls-19" d="M154,148.25l-13-7.53a2.21,2.21,0,0,1-1-2.31h0a1.09,1.09,0,0,1,1.67-.8l13,7.53a2.23,2.23,0,0,1,.95,2.31h0A1.09,1.09,0,0,1,154,148.25Z"/><path class="cls-19" d="M122.69,115.43l-3.13-1.81a2.22,2.22,0,0,1-1-2.31h0a1.08,1.08,0,0,1,1.67-.8l3.13,1.81a2.23,2.23,0,0,1,1,2.31h0A1.09,1.09,0,0,1,122.69,115.43Z"/><path class="cls-19" d="M120.44,128.89l-3.89-2.24a2.23,2.23,0,0,1-1-2.31h0a1.09,1.09,0,0,1,1.67-.8l3.89,2.24a2.25,2.25,0,0,1,1,2.32h0A1.08,1.08,0,0,1,120.44,128.89Z"/><path class="cls-19" d="M135.57,137.63l-10.26-5.92a2.23,2.23,0,0,1-1-2.31h0a1.09,1.09,0,0,1,1.67-.8l10.25,5.92a2.24,2.24,0,0,1,1,2.31h0A1.09,1.09,0,0,1,135.57,137.63Z"/><path class="cls-19" d="M122.42,137.42l-7.37-4.25a2.25,2.25,0,0,1-1-2.32h0a1.08,1.08,0,0,1,1.67-.79l7.37,4.25a2.22,2.22,0,0,1,1,2.31h0A1.09,1.09,0,0,1,122.42,137.42Z"/><path class="cls-19" d="M165.14,154.73,160.4,152a2.23,2.23,0,0,1-1-2.31h0a1.09,1.09,0,0,1,1.67-.8l4.73,2.73a2.23,2.23,0,0,1,1,2.31h0A1.09,1.09,0,0,1,165.14,154.73Z"/><path class="cls-19" d="M145.59,113.88l-13-7.52a2.25,2.25,0,0,1-.95-2.32h0a1.08,1.08,0,0,1,1.67-.79l13,7.52a2.23,2.23,0,0,1,.95,2.31h0A1.09,1.09,0,0,1,145.59,113.88Z"/><path class="cls-19" d="M146.78,107.18,124.07,94.07a2.23,2.23,0,0,1-.95-2.31h0a1.09,1.09,0,0,1,1.67-.8l22.71,13.11a2.23,2.23,0,0,1,.95,2.31h0A1.09,1.09,0,0,1,146.78,107.18Z"/><path class="cls-19" d="M134.09,114.62l-13-7.52a2.23,2.23,0,0,1-1-2.31h0a1.09,1.09,0,0,1,1.67-.8l13,7.52a2.25,2.25,0,0,1,.95,2.32h0A1.09,1.09,0,0,1,134.09,114.62Z"/><path class="cls-19" d="M155.47,119.58l-4.73-2.73a2.24,2.24,0,0,1-1-2.31h0a1.09,1.09,0,0,1,1.67-.8l4.74,2.73a2.25,2.25,0,0,1,.95,2.32h0A1.09,1.09,0,0,1,155.47,119.58Z"/><path class="cls-19" d="M190.81,109.59l-4.73-2.73a2.23,2.23,0,0,1-1-2.31h0a1.09,1.09,0,0,1,1.67-.8l4.73,2.73a2.23,2.23,0,0,1,.95,2.32h0A1.08,1.08,0,0,1,190.81,109.59Z"/><path class="cls-19" d="M133.72,129.18l-15.67-9.05a2.23,2.23,0,0,1-1-2.31h0a1.09,1.09,0,0,1,1.67-.8l15.66,9a2.23,2.23,0,0,1,1,2.31h0A1.09,1.09,0,0,1,133.72,129.18Z"/><path class="cls-19" d="M133.58,77.41l-11.51-6.65a2.23,2.23,0,0,1-.95-2.31h0a1.09,1.09,0,0,1,1.67-.8L134.3,74.3a2.24,2.24,0,0,1,1,2.31h0A1.09,1.09,0,0,1,133.58,77.41Z"/><path class="cls-19" d="M120.37,143.62,107,135.92a2.23,2.23,0,0,1-1-2.31h0a1.09,1.09,0,0,1,1.67-.8l13.33,7.7a2.24,2.24,0,0,1,1,2.31h0A1.09,1.09,0,0,1,120.37,143.62Z"/><path class="cls-19" d="M128.36,186.15l-7.81-4.51a2.25,2.25,0,0,1-1-2.32h0a1.09,1.09,0,0,1,1.67-.79l7.81,4.51a2.23,2.23,0,0,1,.95,2.31h0A1.09,1.09,0,0,1,128.36,186.15Z"/><path class="cls-19" d="M147,196.88l-11.51-6.64a2.25,2.25,0,0,1-1-2.32h0a1.09,1.09,0,0,1,1.68-.79l11.51,6.64a2.25,2.25,0,0,1,.95,2.32h0A1.08,1.08,0,0,1,147,196.88Z"/><path class="cls-19" d="M114.75,222.59l-7.81-4.51a2.23,2.23,0,0,1-1-2.31h0a1.09,1.09,0,0,1,1.67-.8l7.81,4.51a2.25,2.25,0,0,1,1,2.32h0A1.09,1.09,0,0,1,114.75,222.59Z"/><path class="cls-19" d="M131.33,232.17l-11.51-6.65a2.25,2.25,0,0,1-1-2.31h0a1.09,1.09,0,0,1,1.68-.8l11.51,6.65a2.23,2.23,0,0,1,.95,2.31h0A1.09,1.09,0,0,1,131.33,232.17Z"/><path class="cls-19" d="M105.33,180.23l-4.88-2.82a2.23,2.23,0,0,1-1-2.31h0a1.09,1.09,0,0,1,1.67-.8l4.88,2.82a2.23,2.23,0,0,1,1,2.31h0A1.09,1.09,0,0,1,105.33,180.23Z"/><path class="cls-19" d="M120.36,196.29l-14.9-8.6a2.24,2.24,0,0,1-1-2.31h0a1.09,1.09,0,0,1,1.68-.8l14.9,8.6a2.25,2.25,0,0,1,1,2.32h0A1.08,1.08,0,0,1,120.36,196.29Z"/><path class="cls-19" d="M107.33,203.54l-4.88-2.82a2.22,2.22,0,0,1-1-2.31h0a1.08,1.08,0,0,1,1.67-.8l4.88,2.82a2.23,2.23,0,0,1,1,2.31h0A1.09,1.09,0,0,1,107.33,203.54Z"/><path class="cls-19" d="M133.84,248.38l-13-7.52a2.23,2.23,0,0,1-1-2.31h0a1.09,1.09,0,0,1,1.67-.8l13,7.52a2.25,2.25,0,0,1,.95,2.32h0A1.09,1.09,0,0,1,133.84,248.38Z"/><path class="cls-19" d="M102.57,215.56l-3.13-1.81a2.23,2.23,0,0,1-1-2.31h0a1.09,1.09,0,0,1,1.67-.8l3.13,1.81a2.24,2.24,0,0,1,.95,2.31h0A1.09,1.09,0,0,1,102.57,215.56Z"/><path class="cls-19" d="M100.32,229l-3.89-2.24a2.25,2.25,0,0,1-1-2.32h0a1.08,1.08,0,0,1,1.67-.79l3.89,2.24a2.23,2.23,0,0,1,.95,2.31h0A1.09,1.09,0,0,1,100.32,229Z"/><path class="cls-19" d="M115.45,237.76l-10.25-5.91a2.25,2.25,0,0,1-1-2.32h0a1.08,1.08,0,0,1,1.67-.79l10.26,5.91a2.25,2.25,0,0,1,1,2.32h0A1.08,1.08,0,0,1,115.45,237.76Z"/><path class="cls-19" d="M102.3,237.56l-7.37-4.26A2.22,2.22,0,0,1,94,231h0a1.08,1.08,0,0,1,1.67-.8l7.37,4.26a2.23,2.23,0,0,1,1,2.31h0A1.09,1.09,0,0,1,102.3,237.56Z"/><path class="cls-19" d="M145,254.87l-4.73-2.73a2.24,2.24,0,0,1-1-2.32h0A1.08,1.08,0,0,1,141,249l4.74,2.73a2.23,2.23,0,0,1,.95,2.31h0A1.09,1.09,0,0,1,145,254.87Z"/><path class="cls-19" d="M125.47,214l-13-7.52a2.23,2.23,0,0,1-1-2.31h0a1.09,1.09,0,0,1,1.67-.8l13,7.52a2.25,2.25,0,0,1,1,2.32h0A1.08,1.08,0,0,1,125.47,214Z"/><path class="cls-19" d="M126.66,207.32,104,194.21a2.25,2.25,0,0,1-1-2.32h0a1.09,1.09,0,0,1,1.67-.79l22.71,13.11a2.23,2.23,0,0,1,1,2.31h0A1.09,1.09,0,0,1,126.66,207.32Z"/><path class="cls-19" d="M114,214.76l-13-7.52a2.23,2.23,0,0,1-1-2.31h0a1.09,1.09,0,0,1,1.67-.8l13,7.52a2.22,2.22,0,0,1,1,2.31h0A1.08,1.08,0,0,1,114,214.76Z"/><path class="cls-19" d="M135.35,219.72,130.62,217a2.25,2.25,0,0,1-1-2.32h0a1.08,1.08,0,0,1,1.67-.79l4.73,2.73a2.22,2.22,0,0,1,1,2.31h0A1.08,1.08,0,0,1,135.35,219.72Z"/><path class="cls-19" d="M113.6,229.31l-15.66-9A2.24,2.24,0,0,1,97,218h0a1.09,1.09,0,0,1,1.68-.8l15.66,9a2.24,2.24,0,0,1,1,2.31h0A1.09,1.09,0,0,1,113.6,229.31Z"/><path class="cls-19" d="M113.47,177.55,102,170.9a2.23,2.23,0,0,1-1-2.31h0a1.09,1.09,0,0,1,1.67-.8l11.52,6.65a2.23,2.23,0,0,1,1,2.31h0A1.09,1.09,0,0,1,113.47,177.55Z"/><path class="cls-19" d="M100.25,243.76l-13.34-7.7a2.24,2.24,0,0,1-1-2.31h0a1.09,1.09,0,0,1,1.67-.8l13.34,7.7a2.23,2.23,0,0,1,1,2.31h0A1.09,1.09,0,0,1,100.25,243.76Z"/><path class="cls-1" d="M170.63,195.15,181,151.87l-18.17-13a160.19,160.19,0,0,0-28.41-16.4l-19.24-8.56-10.34,43.28s-8.61,31.15,21.27,67.71C164.08,227.48,170.63,195.15,170.63,195.15Z"/><path class="cls-6" d="M146.8,100.19a188.78,188.78,0,0,0-33.4-19.28L90.78,70.85l-7.25,2.82,5.83,3.12L78.62,121.74s-10.12,36.61,25,79.6a62.09,62.09,0,0,0,17.79-1.15l-.18.72,6.52-2.56c.61-.22,1.2-.45,1.79-.69l.13-.06h0c21.86-9.15,26.33-31.19,26.33-31.19l12.16-50.88Z"/><path class="cls-6" d="M113.4,80.91,90.78,70.85l-7.25,2.82,5.83,3.12L85.46,93.1l40.33,26.22,35.12-1,7.25-2.82L146.8,100.19A188.78,188.78,0,0,0,113.4,80.91Z"/><path class="cls-4" d="M124.07,92.94l7.29-2.79a181.68,181.68,0,0,0-18-9.24L90.78,70.85l-7.25,2.82,5.83,3.12-.23,1C103.24,83.94,124.07,92.94,124.07,92.94Z"/><path class="cls-22" d="M125.61,86.92,112,92l11.38,6.57,13.48-5C133.16,91.17,129.41,89,125.61,86.92Z"/><path class="cls-2" d="M148.75,169.24l12.16-50.89L139.55,103a189.69,189.69,0,0,0-33.39-19.28L83.53,73.67,71.37,124.56s-10.12,36.61,25,79.6C141,207.24,148.75,169.24,148.75,169.24Z"/><path class="cls-6" d="M99.21,198.63C83.34,178.48,78,160.14,76.41,148.15c-1.82-13.41.41-22,.43-22.08L87.46,81.63l16.39,7.28a183.49,183.49,0,0,1,32.39,18.71l18.27,13.11-11.27,47.19-.05.19a42.19,42.19,0,0,1-8.25,16.14C126.63,194.33,114.62,199.16,99.21,198.63Z"/><path class="cls-14" d="M104.75,103.92a2.59,2.59,0,0,0,1.07,3,1.57,1.57,0,0,0,2.35-1,2.6,2.6,0,0,0-1.06-3A1.58,1.58,0,0,0,104.75,103.92Z"/><path class="cls-14" d="M99.24,100.74a2.59,2.59,0,0,0,1.07,3,1.57,1.57,0,0,0,2.35-1,2.6,2.6,0,0,0-1.06-3A1.58,1.58,0,0,0,99.24,100.74Z"/><path class="cls-14" d="M93.73,97.56a2.61,2.61,0,0,0,1.07,3,1.58,1.58,0,0,0,2.36-1,2.62,2.62,0,0,0-1.07-3A1.58,1.58,0,0,0,93.73,97.56Z"/><path class="cls-1" d="M67.24,281.67c-10.56-6.09-27.68-6.09-38.24,0s-10.56,16,0,22.08,27.68,6.1,38.24,0S77.8,287.77,67.24,281.67ZM47.46,292.92a10.85,10.85,0,0,1-9.83,0c-2.72-1.57-2.72-4.11,0-5.68a10.91,10.91,0,0,1,9.83,0C50.18,288.81,50.18,291.35,47.46,292.92Z"/><path class="cls-1" d="M72.94,298.85a25.06,25.06,0,0,1-5.23,3.93,37.1,37.1,0,0,1-6.8,3l5.17,3,7.79.4,3.85,2.22-1.57.91L79.06,314l3.15-1.82,5.1,2.94-5.13,3L86,320.26l3.65,2.11,4.55-2.63,6.74,3.9-2.57,1.48,4.33,2.5,2.57-1.48,2,1.17-2,4.07,6.55,3.78h24.07Z"/><path class="cls-9" d="M75.16,290.57v-7.31L73,284.47a18.57,18.57,0,0,0-5.76-4.93c-10.56-6.1-27.68-6.1-38.24,0a17.63,17.63,0,0,0-6.35,5.79l-1.57-2.07v7.31c0,4,2.63,8,7.92,11.05,10.56,6.09,27.68,6.09,38.24,0C72.52,298.57,75.16,294.57,75.16,290.57ZM47.37,285.8a10.85,10.85,0,0,1-9.83,0c-2.72-1.57-2.72-4.11,0-5.68a10.91,10.91,0,0,1,9.83,0C50.09,281.69,50.09,284.23,47.37,285.8Z"/><path class="cls-10" d="M45.85,296.33l-11.66-5.75-10.37-6.85a13.32,13.32,0,0,0-1.17,1.6l-1.57-2.07v7.31c0,4,2.63,8,7.92,11.05a37.89,37.89,0,0,0,16.85,4.51Z"/><path class="cls-10" d="M67.24,272.22c-10.56-6.1-27.68-6.1-38.24,0s-10.56,16,0,22.08,27.68,6.09,38.24,0S77.8,278.31,67.24,272.22ZM47.46,283.47a10.88,10.88,0,0,1-9.83,0c-2.72-1.56-2.72-4.1,0-5.67a10.85,10.85,0,0,1,9.83,0C50.18,279.36,50.18,281.9,47.46,283.47Z"/><path class="cls-9" d="M52.77,276.08H38.09a36.66,36.66,0,0,0-3.9,1.12v12.43H52.77Zm-5.4,9.72a10.85,10.85,0,0,1-9.83,0c-2.72-1.57-2.72-4.11,0-5.68a10.91,10.91,0,0,1,9.83,0C50.09,281.69,50.09,284.23,47.37,285.8Z"/><path class="cls-23" d="M65,273.53c-9.31-5.38-24.4-5.38-33.71,0s-9.3,14.08,0,19.46,24.4,5.37,33.71,0S74.28,278.9,65,273.53Zm-17.51,9.94a10.88,10.88,0,0,1-9.83,0c-2.72-1.56-2.72-4.1,0-5.67a10.85,10.85,0,0,1,9.83,0C50.18,279.36,50.18,281.9,47.46,283.47Z"/><path class="cls-9" d="M31.26,275.54c9.31-5.37,24.4-5.37,33.71,0,4.21,2.43,6.51,5.55,6.91,8.73.49-3.85-1.81-7.8-6.91-10.74-9.31-5.38-24.4-5.38-33.71,0-5.09,2.94-7.39,6.89-6.91,10.74C24.76,281.09,27.06,278,31.26,275.54Z"/><path class="cls-23" d="M72.94,296.67a25.39,25.39,0,0,1-5.23,3.92,37.13,37.13,0,0,1-6.8,3l5.17,3,7.79.4,3.85,2.22-1.57.91,2.91,1.69L82.21,310l5.1,2.94-5.13,3L86,318.07l3.65,2.11,4.55-2.63,6.74,3.9-2.57,1.48,4.33,2.5,2.57-1.48,2,1.17-2,4.07,6.55,3.78h24.07Z"/><path class="cls-10" d="M72.94,291.38a25.06,25.06,0,0,1-5.23,3.93,37.1,37.1,0,0,1-6.8,3l5.17,3,7.79.4,3.85,2.22-1.57.91,2.91,1.68,3.15-1.81,5.1,2.94-5.13,3L86,312.79l3.65,2.11,4.55-2.63,6.74,3.89-2.57,1.49,4.33,2.5,2.57-1.49,2,1.18-2,4.07,6.55,3.78h24.07Z"/><rect class="cls-9" x="111.76" y="327.69" width="24.07" height="5.28"/><polygon class="cls-9" points="102.65 325.43 102.65 320.15 105.22 318.66 105.22 323.95 102.65 325.43"/><polygon class="cls-24" points="98.32 317.65 98.32 322.93 102.65 325.43 102.65 320.15 98.32 317.65"/><polygon class="cls-9" points="94.15 312.27 94.15 317.56 89.6 320.18 89.6 314.9 94.15 312.27"/><polygon class="cls-24" points="82.19 310.62 82.19 315.9 89.6 320.18 89.6 314.9 82.19 310.62"/><polygon class="cls-24" points="105.22 323.95 105.21 329.19 111.76 332.97 111.76 327.69 105.22 323.95"/><polygon class="cls-24" points="79.06 306.53 79.06 311.82 76.15 310.13 76.15 304.85 79.06 306.53"/><polygon class="cls-9" points="66.08 301.32 66.08 306.6 73.86 307 73.86 301.72 66.08 301.32"/><polygon class="cls-9" points="119.4 323.95 73.36 297.34 75.92 295.86 124.49 323.93 119.4 323.95"/><polygon class="cls-23" points="75.92 297.14 122.29 323.94 124.49 323.93 75.92 295.86 73.36 297.34 74.47 297.98 75.92 297.14"/><polygon class="cls-9" points="66.08 306.6 66.08 301.32 60.91 298.33 60.91 303.62 66.08 306.6"/><polygon class="cls-9" points="82.21 304.72 82.21 310 79.06 311.82 79.06 306.53 82.21 304.72"/><path class="cls-10" d="M65,273.53c-5.23-3-12.29-4.35-19.12-4v2c6.83-.38,13.89.95,19.12,4,4.21,2.43,6.51,5.55,6.91,8.73C72.37,280.42,70.07,276.47,65,273.53Z"/></svg>