<svg id="Layer_1" data-name="Layer 1" xmlns="http://www.w3.org/2000/svg" viewBox="0 0 293.8 248.63"><defs><style>.cls-1{fill:#5793ce;}.cls-2{fill:#c4d9e8;}.cls-3{fill:#d4eaf9;}.cls-4{fill:#1f3f7a;}.cls-5{fill:#fff;}.cls-6{fill:#3b6dab;}.cls-7{fill:#d3d1d0;}.cls-8{fill:#f3f3f3;}.cls-9{fill:#fbc1b1;}.cls-10{fill:#ea9c92;}.cls-11{fill:#ed3995;}.cls-12{fill:#285089;}.cls-13{fill:#d0118b;}</style></defs><title>Artboard 1</title><rect class="cls-1" x="40.51" y="219.87" width="1.91" height="5.54" transform="translate(267.43 237.76) rotate(104.38)"/><rect class="cls-1" x="43.24" y="222.54" width="1.91" height="5.54" transform="translate(273.43 238.43) rotate(104.37)"/><rect class="cls-1" x="45.98" y="225.22" width="1.91" height="5.54" transform="translate(279.44 239.12) rotate(104.37)"/><rect class="cls-1" x="48.72" y="227.89" width="1.91" height="5.54" transform="translate(285.45 239.81) rotate(104.38)"/><path class="cls-2" d="M144.43,57.9l2.63,10.85,2.38,1.4,7.82,0-.19,4.14,7.32,0-.19,4.13,7.32.06-.18,4.13,7.32.05-.19,4.14,7.32,0-.2,4.41,7,4.08c-4.9,7-2.49,15.27,7.28,21,8.06,4.73,19.25,6.6,29.73,5.58a54.23,54.23,0,0,0,7.88-1.36,40.52,40.52,0,0,0,9.92-3.89c13.17-7.49,13.26-19.77.19-27.44-10.74-6.3-27-7.51-39.8-3.59l-50.4-29.57Zm83.89,47.7a13.65,13.65,0,0,1,12.37.09c3.41,2,3.38,5.19-.05,7.14a13.65,13.65,0,0,1-12.37-.09C224.87,110.75,224.89,107.55,228.32,105.6Z"/><path class="cls-2" d="M129.79,243.21l68-39.08c4.58-2.64,4-7.26-1.28-10.31l-66-38.08c-5.28-3.05-13.27-3.39-17.85-.74l-68,39.07c-4.58,2.65-4,7.26,1.28,10.31l66,38.09C117.22,245.52,125.21,245.85,129.79,243.21Z"/><path class="cls-1" d="M50.1,154.61l11.75-6.79-43.32-25c-2.05-1.18-2.05-3.1,0-4.29L62.79,93a8.22,8.22,0,0,1,7.42,0l43.32,25,11.76-6.78L82,86.19c-8.52-4.92-22.4-4.92-30.92,0L6.78,111.74c-8.53,4.92-8.52,12.93,0,17.85Z"/><path class="cls-3" d="M31.14,157.59c0-6.28,3.82-13.58,8.53-16.3L118.17,96c2.11-1.22,4-1.31,5.53-.48h0L217.42,150l-90.63,68.3L34.46,164.67a4.19,4.19,0,0,1-.82-.48h0C32.1,163,31.14,160.73,31.14,157.59Z"/><path class="cls-4" d="M126.79,218.26,34.46,164.67a4.19,4.19,0,0,1-.82-.48h0c-1.54-1.17-2.5-3.46-2.5-6.6a20.94,20.94,0,0,1,2.3-9.07L138.7,209.28Z"/><path class="cls-1" d="M132.69,218l78.5-45.31c4.71-2.72,8.53-10,8.53-16.3h0c0-6.29-3.82-9.17-8.53-6.45l-78.5,45.32c-4.71,2.72-8.53,10-8.53,16.3h0C124.16,217.85,128,220.73,132.69,218Z"/><path class="cls-5" d="M144.45,202.73l9.44-5.44a4.11,4.11,0,0,0,1.7-3.25h0c0-1.25-.77-1.83-1.7-1.29l-9.44,5.45a4.05,4.05,0,0,0-1.7,3.24h0C142.75,202.7,143.51,203.27,144.45,202.73Z"/><polygon class="cls-6" points="215.31 43.14 199.18 52.3 182.73 42.65 182.77 38.45 182.91 38.53 182.93 38.23 175.61 38.18 175.65 34.05 168.47 34 168.52 29.86 161.34 29.81 161.38 25.68 154.21 25.63 154.25 21.49 146.58 21.44 144.19 20.04 141.56 9.19 141.6 4.99 142.88 9.01 154.49 7.46 215.31 43.14"/><polygon class="cls-3" points="199.23 48.1 182.77 38.45 182.97 34.03 175.65 33.98 175.84 29.85 168.52 29.8 168.7 25.66 161.38 25.61 161.57 21.48 154.25 21.43 154.43 17.29 146.62 17.24 144.24 15.84 141.6 4.99 154.53 3.26 215.35 38.94 199.23 48.1"/><path class="cls-6" d="M188.27,41.68a22.59,22.59,0,0,1,7.47-6.45A38.85,38.85,0,0,1,203.47,32l11.88,7L199.23,48.1Z"/><polygon class="cls-1" points="142.05 6.81 141.6 4.99 143.77 4.7 195.16 34.85 192.46 36.38 142.05 6.81"/><polygon class="cls-7" points="254.29 56.39 254.47 50.42 252.56 54.45 254.29 56.39"/><path class="cls-6" d="M244.55,42.39c-13.07-7.67-34.35-7.82-47.53-.34-4.27,2.43-7.16,5.37-8.68,8.49l-1.07-1.2-.18,6.33h0c-.06,5,3.19,10,9.74,13.83,13.07,7.67,34.35,7.82,47.52.33S257.62,50.06,244.55,42.39Zm-6.86,16.35c3.41,2,3.38,5.2-.05,7.15a13.65,13.65,0,0,1-12.37-.09c-3.4-2-3.38-5.19,0-7.14A13.68,13.68,0,0,1,237.69,58.74Z"/><path class="cls-8" d="M244.73,36.42c-13.07-7.67-34.35-7.82-47.53-.33S183.94,55.86,197,63.53s34.35,7.81,47.52.33S257.8,44.09,244.73,36.42Zm-6.86,16.36c3.4,2,3.38,5.19-.05,7.14a13.65,13.65,0,0,1-12.37-.09c-3.4-2-3.38-5.19.05-7.14A13.65,13.65,0,0,1,237.87,52.78Z"/><path class="cls-1" d="M229.26,67.13a13.54,13.54,0,0,0,8.38-1.24c2.46-1.4,3.16-3.44,2.11-5.22l6-4.73,6.21-7c4.8,7,2.27,15.3-7.58,20.89a41.59,41.59,0,0,1-14.73,4.69Z"/><path class="cls-3" d="M244.73,36.42c-13.07-7.67-34.35-7.82-47.53-.33S183.94,55.86,197,63.53c8.06,4.73,19.25,6.59,29.73,5.57a53.13,53.13,0,0,0,7.88-1.35,40.29,40.29,0,0,0,9.91-3.89C257.71,56.37,257.8,44.09,244.73,36.42Zm-6.86,16.36c3.4,2,3.38,5.19-.05,7.14a13.65,13.65,0,0,1-12.37-.09c-3.4-2-3.38-5.19.05-7.14A13.65,13.65,0,0,1,237.87,52.78Z"/><path class="cls-6" d="M250.76,50.26c-.64-3.82-3.48-7.56-8.53-10.52-11.62-6.82-30.55-7-42.28-.3-5.82,3.31-8.77,7.68-8.83,12.07-.84-5,2.06-10.12,8.69-13.89,11.73-6.66,30.66-6.53,42.28.29C247.94,41.35,250.83,45.82,250.76,50.26Z"/><path class="cls-6" d="M248.47,101.46C237.3,94.91,228.29,79,228.38,66.09a20.36,20.36,0,0,1,2.51-10.27,13.18,13.18,0,0,1,4.89-4.89c4.72-2.68,10.69-2.18,16.81,1.41,11.17,6.55,20.18,22.42,20.09,35.37-.05,7.09-2.68,12.48-7.4,15.16a13.16,13.16,0,0,1-6.59,1.7A20.37,20.37,0,0,1,248.47,101.46Zm-10.35-46.4A8.55,8.55,0,0,0,235,58.22h0a15.87,15.87,0,0,0-1.86,7.91c-.08,11.43,7.88,25.44,17.74,31.23,4.6,2.7,8.88,3.18,12.06,1.38s5-5.74,5-11.07c.08-11.43-7.88-25.45-17.75-31.23a15.7,15.7,0,0,0-7.8-2.45A8.5,8.5,0,0,0,238.12,55.06Z"/><path class="cls-3" d="M236.18,64.5l-9.38,2.29-1.35-7a13.65,13.65,0,0,0,12.37.09Z"/><path class="cls-3" d="M244.53,63.86a40.29,40.29,0,0,1-9.91,3.89,53.13,53.13,0,0,1-7.88,1.35c-10.48,1-21.67-.84-29.73-5.57l38.2-.86Z"/><path class="cls-6" d="M230.42,68.68a55.17,55.17,0,0,0,8.29-2.14V72.4a44.21,44.21,0,0,1-8.19,2.1C221.77,75.66,230.42,68.68,230.42,68.68Z"/><path class="cls-1" d="M236.51,67.25a38.07,38.07,0,0,0,5.4-2c5.11-2.39-1.35,6.48-1.35,6.48s-1.74.69-4.05,1.4Z"/><polygon class="cls-1" points="140.67 170.23 157.38 181.01 165.52 179.69 145.65 170.08 140.67 170.23"/><path class="cls-4" d="M160.88,224.66s4.81-2.43,7.77,1.18S175.83,238,176,243.76s-4.56,5.38-7.35,4-10.94-13.19-11.44-15.5.58-5.45,1.37-6.07S160.88,224.66,160.88,224.66Z"/><path class="cls-1" d="M159.83,223.5l-.23,5a2.84,2.84,0,0,0,1.41,2.59,5.6,5.6,0,0,0,3.72.58c3.63-.59,4-1.62,4.21-6.61S159.83,223.5,159.83,223.5Z"/><path class="cls-4" d="M178.5,215.07s4.82-2.43,7.77,1.18,7.19,12.15,7.32,17.92-4.57,5.38-7.36,4S175.29,225,174.8,222.68s.58-5.45,1.36-6.07S178.5,215.07,178.5,215.07Z"/><path class="cls-1" d="M177.45,213.91l-.22,5a2.82,2.82,0,0,0,1.41,2.6,5.55,5.55,0,0,0,3.71.58c3.63-.59,4-1.62,4.21-6.61S177.45,213.91,177.45,213.91Z"/><path class="cls-3" d="M134.49,122.33c1.43-23.19,25.11,3.41,25.11,3.41l16.21,15.89,14.6,16A14.36,14.36,0,0,1,194,169.22l-5.9,45A4.42,4.42,0,0,1,183.7,218a15.85,15.85,0,0,1-2.19-.2,5.48,5.48,0,0,1-4.88-5.82L177.71,170l-30.66-18.48S133.07,145.51,134.49,122.33Z"/><path class="cls-1" d="M166,162l4.36-1.6c.1,0,7.41,7.08,7.35,9.55L174.43,171l-8.24-8Z"/><path class="cls-1" d="M140.67,170.23s-18.22-10.4-20.4-14.76c-.85-1.71-2.18-3.5,3.14-6.08l24.29,17.32-1,6Z"/><path class="cls-3" d="M116.87,131.27c1.52-23.18,25.11,3.42,25.11,3.42l16.21,15.88,14.59,16a14.4,14.4,0,0,1,3.63,11.56l-5.91,45a4.41,4.41,0,0,1-4.43,3.84,14.18,14.18,0,0,1-2.18-.19A5.49,5.49,0,0,1,159,221l1.08-42-30.66-18.48S115.48,152.47,116.87,131.27Z"/><path class="cls-1" d="M130.88,56.73c-18,7.45-17.6,18.06-17.6,18.06s3.52,38.92,2.32,64.9c-.5,10.87,57.72,11.7,49-17.29-10.24-34.17-6.4-61.84-11.2-66S135.52,54.81,130.88,56.73Z"/><path class="cls-9" d="M125.1,66.14c.94,3.65,5.72,5.57,10.67,4.3S144,65.17,143,61.52s-5.72-5.56-10.67-4.29S124.16,62.5,125.1,66.14Z"/><path class="cls-5" d="M124.27,66.36a6.87,6.87,0,0,1,1.59-6.1,11.89,11.89,0,0,1,6.3-3.86c5.4-1.39,10.65.81,11.71,4.91a6.88,6.88,0,0,1-1.59,6.1,12,12,0,0,1-6.3,3.86,13.14,13.14,0,0,1-3.24.41C128.62,71.68,125.11,69.62,124.27,66.36Zm8.31-8.3a10.29,10.29,0,0,0-5.39,3.28,5.21,5.21,0,0,0-1.26,4.59c.82,3.18,5.14,4.83,9.63,3.67A10.22,10.22,0,0,0,141,66.33a5.21,5.21,0,0,0,1.26-4.59c-.65-2.49-3.43-4.05-6.77-4.05A11.58,11.58,0,0,0,132.58,58.06Z"/><path class="cls-9" d="M138.08,55.92a43.19,43.19,0,0,0,.15,6.41c.1,1.79-6.16,3.46-7.78,1.84s-1-3.3-1.36-9.39S138.08,55.92,138.08,55.92Z"/><path class="cls-10" d="M129.09,54.78s1.54,5.65,9.14,7.81l-.11-5.13Z"/><path class="cls-9" d="M124.27,40.44a13.82,13.82,0,1,0,16.84-9.92A13.82,13.82,0,0,0,124.27,40.44Z"/><path class="cls-10" d="M134.48,44.41s7.61,3.26,12.88,3.3,4.11-4.38,4.11-4.38l-15.65-2.26Z"/><path class="cls-11" d="M148.93,45.27s-6.63-2.82-12.45-1.64A6,6,0,0,0,133,45.72a2.07,2.07,0,0,1-1.06.76c-1,.24-2.72-4-4.73-4.14s-3.34,1.32-1.7,3.95,1.09,5.58.34,6-8.78-5.72-1.71-19.73,25-6.47,27.85-3.63c0,0,2.94,2.57,5.34.28C157.3,29.21,160,49.32,148.93,45.27Z"/><path class="cls-9" d="M123.35,103.22v10.52a4.28,4.28,0,0,0,1.4,3.16l21.6,19.7-2.45,3.75-28.53-20.69a5.78,5.78,0,0,1-2.36-4.09l-1.93-18.33Z"/><path class="cls-1" d="M114.8,69.53s-6.55,9.86-9,35.8c0,0,11.19,3.62,17.54,1.57S114.8,69.53,114.8,69.53Z"/><path class="cls-6" d="M124.55,82s2.57,13.73,2.71,20.18a4.13,4.13,0,0,1-2.71,4h0Z"/><path class="cls-4" d="M130.16,150.27l4.77-.63,30.82-17.79a4.27,4.27,0,0,1,3.85.16l21.84,12.6,2.89-.38v2.87h0a1.11,1.11,0,0,1-.66,1l-34.92,20.17a4.29,4.29,0,0,1-3.86-.16L131.1,154.39a1.55,1.55,0,0,1-.94-1.29h0Z"/><path class="cls-6" d="M153.31,139l2.19-1.27h24.07l11.87,6.85,2.89-.38v2.87h0a1.11,1.11,0,0,1-.66,1l-34.92,20.17a3.63,3.63,0,0,1-2,.37Z"/><path class="cls-1" d="M193.05,144.4l1.28-.17v2.87h0a1.11,1.11,0,0,1-.66,1l-.61.36Z"/><path class="cls-12" d="M158.38,168.44a4.44,4.44,0,0,1-3.27-.2v-4.89h3.27Z"/><path class="cls-5" d="M158.74,165.41l34.92-20.17c1-.57.87-1.56-.27-2.22L169.6,129.29a4.27,4.27,0,0,0-3.85-.16L130.82,149.3c-1,.57-.86,1.56.28,2.22l23.78,13.73A4.29,4.29,0,0,0,158.74,165.41Z"/><path class="cls-3" d="M159.33,162.35l29-16.77c.82-.47.72-1.3-.23-1.85l-12.75-7.16a3.56,3.56,0,0,0-3.2-.14l-29,16.77c-.82.47-.72,1.3.23,1.85l12.74,7.17A3.58,3.58,0,0,0,159.33,162.35Z"/><path class="cls-9" d="M168.25,128.63l.36,2.41a17.83,17.83,0,0,1-.15,6.18l-.43,2.12a3,3,0,0,1-2.4,2.35h0a1.65,1.65,0,0,1-1.93-1.44l-.57-5.15s-1.32,1.72-2,1.72.71-5.15,2.15-8.07S168.25,128.63,168.25,128.63Z"/><path class="cls-9" d="M156.41,90.33l3.75,7.41a14.41,14.41,0,0,1,1.53,5.63l1.63,25.38,4.93-.12,2.24-28.49a10.16,10.16,0,0,0-.13-2.64l-2.55-14.44Z"/><path class="cls-4" d="M159.92,167.34l2.93-3.82,30.79-17.83a4.28,4.28,0,0,0,1.79-3.42l0-25.21,1.77-2.32-1.66-1h0a1.14,1.14,0,0,0-1.21.07l-34.9,20.21a4.28,4.28,0,0,0-1.79,3.42l0,27.46a1.54,1.54,0,0,0,.66,1.46h0Z"/><path class="cls-6" d="M181.22,152.89l2.18-1.27,12-20.86v-13.7l1.77-2.32-1.66-1h0a1.14,1.14,0,0,0-1.21.07l-34.9,20.21a3.62,3.62,0,0,0-1.32,1.54Z"/><path class="cls-1" d="M196.39,115.77l.78-1-1.66-1h0a1.14,1.14,0,0,0-1.21.07l-.62.36Z"/><path class="cls-12" d="M159.08,134.28a4.52,4.52,0,0,0-1.46,2.94l3.41,2,1.64-2.84Z"/><path class="cls-1" d="M161.06,135,196,114.81c1-.57,1.79,0,1.79,1.36l0,27.45A4.3,4.3,0,0,1,196,147l-34.9,20.21c-1,.57-1.79,0-1.8-1.35l0-27.46A4.26,4.26,0,0,1,161.06,135Z"/><path class="cls-9" d="M143.9,140.35l.56,1.16a7.71,7.71,0,0,0,2.92,3.23l3.46,2.14a3.46,3.46,0,0,0,3.54.08l.12-.07a2.08,2.08,0,0,0,.29-3.2L151.17,140s2,1.56,2.61.93c.42-.46-2-2.7-3.81-2.78a7.25,7.25,0,0,1-3.62-1.51Z"/><path class="cls-1" d="M153.08,56.33S166.37,70.78,171.72,84a27.1,27.1,0,0,1-15.65,11.39C145,98.65,153.08,56.33,153.08,56.33Z"/><path class="cls-6" d="M158.57,94.58l-2.16-20.8,5.08,19.49C160.58,93.74,159.6,94.17,158.57,94.58Z"/><path class="cls-5" d="M143.14,53.42l3.57-1a8.63,8.63,0,0,1-4.19,3.36c-2.49.68-2.88-1.42-2.88-1.42Z"/><path class="cls-3" d="M200.88,11.48a10,10,0,1,1,10,10A10,10,0,0,1,200.88,11.48Zm2.18,0a7.82,7.82,0,1,0,7.81-7.82A7.81,7.81,0,0,0,203.06,11.48Z"/><path class="cls-1" d="M1.7,86.42a7.09,7.09,0,1,1,7.09,7.09A7.1,7.1,0,0,1,1.7,86.42Zm2.18,0a4.91,4.91,0,1,0,4.91-4.91A4.91,4.91,0,0,0,3.88,86.42Z"/><path class="cls-1" d="M231.42,216.76l4.81-9.79,9.78,4.81-4.81,9.79Zm5.8-6.87-2.88,5.87,5.87,2.89,2.88-5.87Z"/><path class="cls-1" d="M89.39,65.08l4.81-9.79L104,60.11l-4.82,9.78Zm5.8-6.87-2.88,5.88L98.18,67l2.89-5.87Z"/><rect class="cls-1" x="252.98" y="162.74" width="5.01" height="5.01" transform="translate(411.85 426.26) rotate(-153.82)"/><path class="cls-13" d="M78,16.79,104.77,1.36a1.34,1.34,0,0,1,1.38-.11v0l2.59,1.5-1.82.66V22.86A5.15,5.15,0,0,1,104.77,27L79.21,41.73V44l-2.62-1.5h0a1.9,1.9,0,0,1-.72-1.71V20.9A5.16,5.16,0,0,1,78,16.79Z"/><path class="cls-11" d="M80.67,43.93,107.41,28.5a5.19,5.19,0,0,0,2.15-4.11V4.5c0-1.58-1-2.31-2.15-1.62L80.67,18.32a5.13,5.13,0,0,0-2.15,4.11V42.31C78.52,43.89,79.48,44.62,80.67,43.93Z"/><path class="cls-5" d="M98.41,21.65c0,1.15.81,1.61,1.81,1a4,4,0,0,0,1.8-3.13c0-1.15-.8-1.61-1.8-1A4,4,0,0,0,98.41,21.65Z"/><path class="cls-5" d="M93,24.8c0,1.15.81,1.62,1.8,1a4,4,0,0,0,1.81-3.12c0-1.15-.81-1.62-1.81-1A4,4,0,0,0,93,24.8Z"/><path class="cls-5" d="M87.48,28c0,1.15.81,1.61,1.81,1a4,4,0,0,0,1.8-3.13c0-1.15-.81-1.61-1.8-1A4,4,0,0,0,87.48,28Z"/><path class="cls-1" d="M262.87,186,289.1,170.8a1.34,1.34,0,0,1,1.35-.11h0l2.55,1.47-1.79.65v19.1a5.09,5.09,0,0,1-2.11,4L264,210.41v2.24l-2.58-1.48h0a1.87,1.87,0,0,1-.71-1.69V190A5,5,0,0,1,262.87,186Z"/><path class="cls-3" d="M265.46,212.57l26.23-15.14a5.07,5.07,0,0,0,2.11-4V173.89c0-1.55-.95-2.27-2.11-1.59l-26.23,15.14a5,5,0,0,0-2.11,4V211C263.35,212.53,264.29,213.25,265.46,212.57Z"/><path class="cls-5" d="M282.87,190.71c0,1.13.79,1.58,1.77,1a3.93,3.93,0,0,0,1.77-3.07c0-1.12-.8-1.58-1.77-1A3.92,3.92,0,0,0,282.87,190.71Z"/><path class="cls-5" d="M277.51,193.8c0,1.13.79,1.59,1.77,1a4,4,0,0,0,1.77-3.07c0-1.13-.8-1.59-1.77-1A3.89,3.89,0,0,0,277.51,193.8Z"/><path class="cls-5" d="M272.14,196.9c0,1.13.8,1.59,1.77,1a3.9,3.9,0,0,0,1.77-3.06c0-1.13-.79-1.59-1.77-1A4,4,0,0,0,272.14,196.9Z"/></svg>