<svg xmlns="http://www.w3.org/2000/svg" xmlns:xlink="http://www.w3.org/1999/xlink" viewBox="0 0 302.3 275.59"><defs><style>.cls-1{isolation:isolate;}.cls-2{opacity:0.1;}.cls-3{mix-blend-mode:overlay;}.cls-10,.cls-4,.cls-5,.cls-6,.cls-7,.cls-8,.cls-9{fill:#f1f5fa;}.cls-46,.cls-5{opacity:0.83;}.cls-47,.cls-48,.cls-6{opacity:0.67;}.cls-50,.cls-7{opacity:0.5;}.cls-52,.cls-8{opacity:0.33;}.cls-54,.cls-9{opacity:0.17;}.cls-10,.cls-56{opacity:0;}.cls-11{fill:#323a3b;}.cls-12{fill:#232829;}.cls-13{fill:#1d1f1f;}.cls-14{fill:#141515;}.cls-15{fill:#a9d6ea;}.cls-16{fill:#303637;}.cls-17{fill:#454e4f;}.cls-18{fill:#def6ff;}.cls-19{fill:url(#linear-gradient);}.cls-20{fill:#ffe85f;}.cls-21{fill:#4d9b12;}.cls-22{fill:#73c139;}.cls-23{fill:#e53399;}.cls-24{fill:#ff76c4;}.cls-25{fill:url(#linear-gradient-2);}.cls-26{fill:url(#linear-gradient-3);}.cls-27{fill:url(#linear-gradient-4);}.cls-28{fill:#8fc7db;}.cls-29{fill:#efb185;}.cls-30{fill:#e6a376;}.cls-31{fill:#5fb9e6;}.cls-32{fill:#77d2ff;}.cls-33{fill:#111114;}.cls-34{fill:#0a0a0a;}.cls-35{fill:#ea49bd;}.cls-36{fill:#ff61cb;}.cls-37{fill:#dd9569;}.cls-38{fill:#341c09;}.cls-39{fill:#221101;}.cls-40{fill:#aac6c3;}.cls-41{fill:#c2e7f2;}.cls-42{fill:#a9d5e0;}.cls-43{fill:#5a5c5d;}.cls-44{fill:#6d6f70;}.cls-45{fill:#ffebc4;}.cls-45,.cls-59{opacity:0.6;}.cls-47{fill:#ffeece;}.cls-49{fill:#fff2d8;opacity:0.73;}.cls-51{fill:#fff5e2;opacity:0.8;}.cls-53{fill:#fff8eb;opacity:0.87;}.cls-55{fill:#fffcf5;opacity:0.93;}.cls-57,.cls-59{fill:#fff;}.cls-58{opacity:0.3;}</style><linearGradient id="linear-gradient" x1="258.89" y1="120.4" x2="259.32" y2="166.76" gradientUnits="userSpaceOnUse"><stop offset="0" stop-color="#ffdf02"/><stop offset="0.13" stop-color="#f9d402"/><stop offset="0.44" stop-color="#ecbd01"/><stop offset="0.74" stop-color="#e4af00"/><stop offset="1" stop-color="#e1aa00"/></linearGradient><linearGradient id="linear-gradient-2" x1="116.45" y1="88.85" x2="129.52" y2="88.85" gradientTransform="translate(-76.67)" xlink:href="#linear-gradient"/><linearGradient id="linear-gradient-3" x1="120.52" y1="57.81" x2="133.59" y2="57.81" gradientTransform="matrix(0.99, -0.14, 0.14, 0.99, -77.29, 43.75)" xlink:href="#linear-gradient"/><linearGradient id="linear-gradient-4" x1="126.88" y1="92.71" x2="126.88" y2="142.52" gradientTransform="translate(-76.67)" gradientUnits="userSpaceOnUse"><stop offset="0" stop-color="#ff4caa"/><stop offset="1" stop-color="#e53399"/></linearGradient></defs><title>Artboard 9</title><g class="cls-1"><g id="Layer_1" data-name="Layer 1"><path class="cls-2" d="M275.83,150.12c.31-.16.64-.32.94-.49,8.67-5,8.65-13.23-.12-18.28-7.88-4.55-20.15-5-28.85-1.3-50.06-26.33-124.33-28.77-178.9-7.32A15.88,15.88,0,0,0,62.13,116c-10.14-5.85-26.57-5.84-36.66,0s-10,15.36.12,21.22a33,33,0,0,0,10,3.6c-44,32.81-39.9,80.16,12.25,110.27,56.59,32.68,148.34,32.68,204.92,0C300.15,223.71,307.84,182.11,275.83,150.12Z"/><g class="cls-3"><path class="cls-4" d="M95.6,76.26l1.12.44a1.54,1.54,0,0,0,1.1,0L99,76.27c.74-.28.75-1,0-1.3l-1.11-.44a1.57,1.57,0,0,0-1.11,0L95.61,75C94.87,75.24,94.87,76,95.6,76.26Z"/><path class="cls-5" d="M95.63,68.43l1.11.44a1.57,1.57,0,0,0,1.11,0L99,68.44c.75-.28.75-1,0-1.3l-1.12-.44a1.52,1.52,0,0,0-1.11,0l-1.12.43C94.9,67.41,94.9,68.14,95.63,68.43Z"/><path class="cls-6" d="M95.66,60.6l1.11.45a1.63,1.63,0,0,0,1.11,0L99,60.62c.74-.29.75-1,0-1.31l-1.12-.44a1.57,1.57,0,0,0-1.11,0l-1.12.43C94.93,59.58,94.93,60.31,95.66,60.6Z"/><path class="cls-7" d="M95.69,52.77l1.11.45a1.63,1.63,0,0,0,1.11,0L99,52.79c.74-.29.75-1,0-1.3L97.93,51a1.63,1.63,0,0,0-1.11,0l-1.12.43C95,51.76,95,52.48,95.69,52.77Z"/><path class="cls-8" d="M95.71,44.94l1.12.45a1.6,1.6,0,0,0,1.1,0L99.06,45c.74-.29.75-1,0-1.3L98,43.21a1.63,1.63,0,0,0-1.11,0l-1.12.43C95,43.93,95,44.65,95.71,44.94Z"/><path class="cls-9" d="M95.74,37.11l1.12.45a1.6,1.6,0,0,0,1.1,0l1.13-.43c.74-.29.74-1,0-1.3L98,35.39a1.54,1.54,0,0,0-1.1,0l-1.13.43C95,36.1,95,36.82,95.74,37.11Z"/><path class="cls-10" d="M95.77,29.29l1.12.44a1.54,1.54,0,0,0,1.1,0l1.13-.43c.73-.29.74-1,0-1.3L98,27.56a1.57,1.57,0,0,0-1.11,0L95.78,28C95,28.27,95,29,95.77,29.29Z"/></g><g class="cls-3"><path class="cls-4" d="M219.31,46.54l.81.47a.79.79,0,0,0,.8,0l.81-.46a.8.8,0,0,0,0-1.38l-.81-.47a.79.79,0,0,0-.8,0l-.81.46A.8.8,0,0,0,219.31,46.54Z"/><path class="cls-5" d="M219.33,38.24l.81.47a.81.81,0,0,0,.8,0l.81-.46a.8.8,0,0,0,0-1.38L221,36.4a.79.79,0,0,0-.8,0l-.81.46A.8.8,0,0,0,219.33,38.24Z"/><path class="cls-6" d="M219.36,29.93l.8.47a.84.84,0,0,0,.8,0l.81-.47a.8.8,0,0,0,0-1.38l-.81-.47a.81.81,0,0,0-.8,0l-.81.46A.8.8,0,0,0,219.36,29.93Z"/><path class="cls-7" d="M219.38,21.62l.8.47a.79.79,0,0,0,.8,0l.81-.46a.8.8,0,0,0,0-1.38l-.81-.47a.79.79,0,0,0-.8,0l-.81.46A.8.8,0,0,0,219.38,21.62Z"/><path class="cls-8" d="M219.4,13.31l.8.47a.79.79,0,0,0,.8,0l.81-.46a.8.8,0,0,0,0-1.38l-.81-.47a.79.79,0,0,0-.8,0l-.81.46A.8.8,0,0,0,219.4,13.31Z"/><path class="cls-9" d="M219.42,5l.8.47a.81.81,0,0,0,.8,0l.81-.46a.8.8,0,0,0,0-1.38L221,3.17a.79.79,0,0,0-.8,0l-.81.46A.8.8,0,0,0,219.42,5Z"/></g><g class="cls-3"><path class="cls-4" d="M295.58,154.75l.8.47a.81.81,0,0,0,.8,0l.81-.46a.8.8,0,0,0,0-1.38l-.8-.47a.81.81,0,0,0-.8,0l-.81.46A.79.79,0,0,0,295.58,154.75Z"/><path class="cls-5" d="M295.6,146.44l.8.47a.79.79,0,0,0,.8,0l.81-.46a.8.8,0,0,0,0-1.38l-.8-.48a.81.81,0,0,0-.8,0l-.81.46A.79.79,0,0,0,295.6,146.44Z"/><path class="cls-6" d="M295.62,138.13l.8.47a.79.79,0,0,0,.8,0l.81-.46a.8.8,0,0,0,0-1.38l-.8-.47a.79.79,0,0,0-.8,0l-.81.46A.8.8,0,0,0,295.62,138.13Z"/><path class="cls-7" d="M295.64,129.83l.8.47a.81.81,0,0,0,.8,0l.81-.46a.8.8,0,0,0,0-1.38l-.8-.47a.79.79,0,0,0-.8,0l-.81.46A.79.79,0,0,0,295.64,129.83Z"/><path class="cls-8" d="M295.66,121.52l.8.47a.81.81,0,0,0,.8,0l.81-.46a.8.8,0,0,0,0-1.38l-.8-.47a.81.81,0,0,0-.8,0l-.81.46A.8.8,0,0,0,295.66,121.52Z"/><path class="cls-9" d="M295.68,113.21l.8.47a.79.79,0,0,0,.8,0l.81-.46a.8.8,0,0,0,0-1.38l-.8-.47a.79.79,0,0,0-.8,0l-.81.46A.79.79,0,0,0,295.68,113.21Z"/><path class="cls-10" d="M295.7,104.9l.8.47a.79.79,0,0,0,.8,0l.81-.46a.8.8,0,0,0,0-1.38l-.81-.47a.77.77,0,0,0-.79,0l-.81.46A.8.8,0,0,0,295.7,104.9Z"/></g><g class="cls-3"><path class="cls-4" d="M3.7,140l1.08.64a1.08,1.08,0,0,0,1.07,0l1.09-.62a1.07,1.07,0,0,0,0-1.85l-1.08-.63a1.08,1.08,0,0,0-1.07,0l-1.09.62A1.07,1.07,0,0,0,3.7,140Z"/><path class="cls-5" d="M3.73,128.88l1.07.63a1.09,1.09,0,0,0,1.08,0L7,128.89A1.07,1.07,0,0,0,7,127l-1.08-.63a1.09,1.09,0,0,0-1.08,0L3.74,127A1.07,1.07,0,0,0,3.73,128.88Z"/><path class="cls-6" d="M3.75,117.72l1.08.63a1.1,1.1,0,0,0,1.07,0L7,117.74a1.07,1.07,0,0,0,0-1.86l-1.07-.63a1.09,1.09,0,0,0-1.08,0l-1.09.62A1.08,1.08,0,0,0,3.75,117.72Z"/><path class="cls-7" d="M3.78,106.56l1.08.63a1.1,1.1,0,0,0,1.07,0L7,106.58a1.08,1.08,0,0,0,0-1.86L6,104.09a1.08,1.08,0,0,0-1.07,0l-1.09.62A1.08,1.08,0,0,0,3.78,106.56Z"/><path class="cls-8" d="M3.81,95.4,4.89,96A1.08,1.08,0,0,0,6,96l1.09-.62a1.08,1.08,0,0,0,0-1.86L6,92.93a1.05,1.05,0,0,0-1.07,0l-1.09.61A1.07,1.07,0,0,0,3.81,95.4Z"/><path class="cls-9" d="M3.84,84.24l1.07.63a1.08,1.08,0,0,0,1.07,0l1.09-.62a1.06,1.06,0,0,0,0-1.85L6,81.77a1.09,1.09,0,0,0-1.08,0l-1.08.61A1.07,1.07,0,0,0,3.84,84.24Z"/><path class="cls-10" d="M3.86,73.08l1.08.63a1.05,1.05,0,0,0,1.07,0L7.1,73.1a1.07,1.07,0,0,0,0-1.85L6,70.61a1.08,1.08,0,0,0-1.07,0l-1.09.61A1.08,1.08,0,0,0,3.86,73.08Z"/></g><g class="cls-1"><polygon class="cls-11" points="119.04 119.44 119.03 126.25 97.36 138.85 97.37 132.06 119.04 119.44"/><polygon class="cls-12" points="145.69 134.81 145.67 141.62 119.03 126.25 119.04 119.44 145.69 134.81"/><polygon class="cls-13" points="145.69 134.81 145.67 141.62 124 154.23 124.02 147.41 145.69 134.81"/><polygon class="cls-14" points="124.02 147.41 124 154.23 97.36 138.85 97.37 132.06 124.02 147.41"/><polygon class="cls-11" points="52.2 158.31 52.19 165.1 45.03 169.25 45.05 162.47 52.2 158.31"/><polygon class="cls-12" points="78.82 173.69 78.79 180.48 52.19 165.1 52.2 158.31 78.82 173.69"/><polygon class="cls-15" points="78.82 173.69 71.67 177.82 45.05 162.47 52.2 158.31 78.82 173.69"/><polygon class="cls-14" points="71.67 177.82 71.66 184.64 45.03 169.25 45.05 162.47 71.67 177.82"/><polygon class="cls-13" points="78.82 173.69 78.79 180.48 71.66 184.64 71.67 177.82 78.82 173.69"/><polygon class="cls-11" points="151.98 138.44 151.97 145.26 76.26 189.25 76.26 182.44 151.98 138.44"/><polygon class="cls-12" points="252.22 196.32 252.2 203.13 151.97 145.26 151.98 138.44 252.22 196.32"/><polygon class="cls-16" points="176.51 240.3 176.48 247.11 76.26 189.25 76.26 182.44 176.51 240.3"/><polygon class="cls-17" points="252.22 196.32 252.2 203.13 176.48 247.11 176.51 240.3 252.22 196.32"/><polygon class="cls-15" points="252.22 196.32 176.51 240.3 76.26 182.44 151.98 138.44 252.22 196.32"/><path class="cls-18" d="M119.14,113.54l145.24,83.85-87.56,50.89L31.57,164.43ZM176.51,240.3l75.71-44L152,138.44l-75.72,44L176.51,240.3ZM124,147.41l21.67-12.6L119,119.44,97.37,132.06,124,147.41ZM71.67,177.82l7.15-4.13L52.2,158.31l-7.15,4.16,26.62,15.35Z"/><polygon class="cls-15" points="145.69 134.81 124.02 147.41 97.37 132.06 119.04 119.44 145.69 134.81"/><polygon class="cls-15" points="264.38 197.39 264.36 204.19 176.79 255.08 176.82 248.28 264.38 197.39"/><polygon class="cls-15" points="176.82 248.28 176.79 255.08 31.57 171.22 31.57 164.43 176.82 248.28"/></g><path class="cls-19" d="M281.15,116.39l-44.59.71,5.36,27.64H242c.37,2.19,2,4.33,4.93,6,6.64,3.84,17.34,3.84,23.92,0,2.9-1.68,4.52-3.82,4.86-6h0Z"/><path class="cls-20" d="M274.56,107.26c8.76,5,8.79,13.24.12,18.28s-22.78,5-31.54,0-8.79-13.21-.11-18.24S265.83,102.22,274.56,107.26Z"/><path class="cls-21" d="M269.72,109.72c6.41,3.7,6.41,9.67.06,13.36s-16.64,3.68-23,0-6.42-9.65-.09-13.35S263.33,106,269.72,109.72Z"/><path class="cls-22" d="M242.61,112.15s-17.78-22.49-.3-62.93c0,0,15.36,19.37,6.56,69C248.87,118.22,245.45,116.94,242.61,112.15Z"/><path class="cls-21" d="M242.52,49.51c.33,15.57,1.21,42.61,3.36,66.7a10.5,10.5,0,0,0,3,2C257.06,71.94,244.3,52,242.52,49.51Z"/><path class="cls-22" d="M251.37,109.4s-14.25-24.88,9.05-62.28c0,0,12.32,21.44-3.78,69.22C256.64,116.34,253.45,114.56,251.37,109.4Z"/><path class="cls-21" d="M260.42,47.12c-2,15.46-6.37,42.29-7.82,66.44a10.64,10.64,0,0,0,2.66,2.44C272.74,74.27,261.8,49.84,260.42,47.12Z"/><path class="cls-22" d="M252.27,119.22S231,111.68,225.62,77.34c0,0,18.38,6.47,33.38,43.32A11.15,11.15,0,0,1,252.27,119.22Z"/><path class="cls-21" d="M225.88,77.44c6.77,10.27,18.7,28,30.28,43.13a8.71,8.71,0,0,0,2.84.09C245,86.31,228.12,78.36,225.88,77.44Z"/><path class="cls-22" d="M261.73,115.9s-11.41-13-2.07-38c0,0,9.85,11.22,6,41.46A8.41,8.41,0,0,1,261.73,115.9Z"/><path class="cls-21" d="M259.8,78.08c.67,9.4,2,25.7,4,40.18a6.41,6.41,0,0,0,1.89,1.12C269.25,91.2,260.94,79.53,259.8,78.08Z"/><path class="cls-22" d="M266.8,107.53s-10.91-19.81,7.93-49c0,0,9.44,17.08-3.86,54.55A11.06,11.06,0,0,1,266.8,107.53Z"/><path class="cls-21" d="M274.87,58.78c-1.77,12.17-4.62,33.31-6.06,52.33a8.33,8.33,0,0,0,2.06,2C283.26,78.12,275.92,61,274.87,58.78Z"/><path class="cls-22" d="M269.6,111.23S267,94.54,287.7,78.88c0,0,2.27,14.38-16.66,37.28A8.39,8.39,0,0,1,269.6,111.23Z"/><path class="cls-21" d="M287.74,79.09c-4.37,8.07-11.75,22.19-17.64,35.17a6.49,6.49,0,0,0,.94,1.9C288.67,94.81,287.91,80.88,287.74,79.09Z"/><path class="cls-23" d="M64.38,77.21c7.84,4.53,7.88,11.87.09,16.4s-20.47,4.53-28.31,0-7.89-11.87-.1-16.4S56.53,72.68,64.38,77.21Z"/><path class="cls-24" d="M64.38,77.21c-7.85-4.53-20.53-4.53-28.32,0s-7.75,11.87.1,16.4,20.51,4.53,28.31,0S72.22,81.74,64.38,77.21ZM61.9,92.14c-6.4,3.71-16.79,3.71-23.23,0S32.2,82.4,38.6,78.68s16.78-3.72,23.22,0S68.29,88.42,61.9,92.14Z"/><path class="cls-22" d="M38.62,56.07a0,0,0,0,0,0,0,.6.6,0,0,1-.08.21l0,0a.81.81,0,0,1-.14.2l-.14.14-.12.11a2.53,2.53,0,0,1-.63.34l-.1,0a3.4,3.4,0,0,1-.73.19h0a3.58,3.58,0,0,1-.8,0h0a3,3,0,0,1-.74-.18,1.09,1.09,0,0,1-.75-.8L42,114.86a1.09,1.09,0,0,0,.76.8l.32.11.28,0h.46v0h0v0H44l.21,0h.11l.11,0,.24,0,.27-.07.11-.05.1,0,.19-.07a2.16,2.16,0,0,0,.44-.27l0,0a.45.45,0,0,0,.1-.09s.1-.09.14-.14a0,0,0,0,0,0,0l.12-.16a.06.06,0,0,0,0,0,.08.08,0,0,0,0,0s0,0,0-.06a1.12,1.12,0,0,0,0-.13v0a.31.31,0,0,0,0-.08v-.15l-7.7-58.43A.81.81,0,0,1,38.62,56.07Z"/><path class="cls-21" d="M37.86,55c.92.38,1,1.17.25,1.77a3.37,3.37,0,0,1-3.06.41.94.94,0,0,1-.24-1.77A3.41,3.41,0,0,1,37.86,55Z"/><path class="cls-22" d="M51.17,53.35a0,0,0,0,0,0,0,.86.86,0,0,1-.07.21l0,0a.66.66,0,0,1-.14.2l-.14.14-.12.11a3.11,3.11,0,0,1-.62.35l-.11,0a3.56,3.56,0,0,1-.73.19h0a3.5,3.5,0,0,1-.79,0h0a3.25,3.25,0,0,1-.73-.17,1.11,1.11,0,0,1-.76-.81l7.69,58.44a1.11,1.11,0,0,0,.75.8l.34.11.27,0h.46v0h0v0h.21l.21,0h.11l.11,0,.24,0,.27-.07.12,0,.1,0,.17-.07a2,2,0,0,0,.45-.27l0,0,.09-.09.15-.14h0a1.67,1.67,0,0,0,.12-.16.08.08,0,0,0,0,0s0,0,0,0,0,0,0-.06a.69.69,0,0,0,.05-.13v0l0-.08a.62.62,0,0,0,0-.13v0L51.17,53.13A.81.81,0,0,1,51.17,53.35Z"/><path class="cls-21" d="M50.41,52.32a1,1,0,0,1,.25,1.77,3.41,3.41,0,0,1-3,.42c-.91-.38-1-1.18-.25-1.78A3.41,3.41,0,0,1,50.41,52.32Z"/><path class="cls-22" d="M72,59.52l0,0a.56.56,0,0,1-.15.16l0,0a1.48,1.48,0,0,1-.21.13l-.19.06-.16,0a2.37,2.37,0,0,1-.71,0h-.11a3.12,3.12,0,0,1-.74-.14h0a3.94,3.94,0,0,1-.73-.32l0,0a2.31,2.31,0,0,1-.59-.47,1.06,1.06,0,0,1-.34-1l-18,56.12a1.08,1.08,0,0,0,.33,1,3.07,3.07,0,0,0,.26.25l.23.16.11.07h0l.06,0,.19.1v0h0v0l.2.09.2.07.08,0h0l.11,0,.24.06a1.36,1.36,0,0,0,.27,0h.43a3.05,3.05,0,0,0,.52,0h0l.12,0a1,1,0,0,0,.18-.07h0a.69.69,0,0,0,.17-.1s0,0,0,0l0,0,.05,0,.1-.11h0s0,0,0,0l0-.06a.61.61,0,0,0,0-.12s0,0,0,0l18-56.12A.57.57,0,0,1,72,59.52Z"/><path class="cls-21" d="M71.73,58.28A.94.94,0,0,1,71.2,60a3.39,3.39,0,0,1-2.93-.93,1,1,0,0,1,.53-1.71A3.39,3.39,0,0,1,71.73,58.28Z"/><path class="cls-25" d="M52.78,59.76a0,0,0,0,1,0,0l-.13.18s0,0,0,0l-.2.16-.18.09-.14.08a2.56,2.56,0,0,1-.7.15h-.11a3.8,3.8,0,0,1-.75,0h0a4.58,4.58,0,0,1-.77-.21h0a3.23,3.23,0,0,1-.66-.37,1.12,1.12,0,0,1-.51-1l-8.74,58.28a1.07,1.07,0,0,0,.5,1,1.87,1.87,0,0,0,.29.2l.25.13.13.05h0l.07,0,.2.07.21.06.21,0h.22l.25,0h.51l.19,0a1.94,1.94,0,0,0,.5-.14h0l.12-.06a1,1,0,0,0,.17-.1h0l.16-.12,0,0s0,0,0,0l0,0a.5.5,0,0,0,.08-.12s0,0,0,0v0l0-.07,0-.12v0l8.75-58.29A1.11,1.11,0,0,1,52.78,59.76Z"/><path class="cls-20" d="M52.34,58.56a.94.94,0,0,1-.25,1.77A3.42,3.42,0,0,1,49,59.88c-.78-.62-.66-1.41.25-1.77A3.39,3.39,0,0,1,52.34,58.56Z"/><path class="cls-26" d="M58.91,53.91a0,0,0,0,1,0,0,.87.87,0,0,1-.1.19l0,0a1.45,1.45,0,0,1-.17.19.64.64,0,0,1-.16.11l-.13.1a2.81,2.81,0,0,1-.67.25l-.1,0a3.84,3.84,0,0,1-.76.08h0a3,3,0,0,1-.79-.1h0a2.7,2.7,0,0,1-.7-.28,1.08,1.08,0,0,1-.64-.9l-.68,58.93a1.11,1.11,0,0,0,.64.91l.31.15a1.71,1.71,0,0,0,.27.09l.12,0h0l.07,0,.21,0,.22,0h.67l.29,0,.12,0,.1,0,.19-.05a2.55,2.55,0,0,0,.48-.2l0,0a.52.52,0,0,0,.11-.08,1.11,1.11,0,0,0,.16-.11h0a1,1,0,0,0,.14-.15s0,0,0,0l0,0,0-.06a.61.61,0,0,0,.05-.12s0,0,0,0,0,0,0,0a.24.24,0,0,0,0-.08.3.3,0,0,0,0-.13v0L59,53.69A.93.93,0,0,1,58.91,53.91Z"/><path class="cls-20" d="M58.31,52.78a1,1,0,0,1,0,1.79,3.41,3.41,0,0,1-3.08,0,1,1,0,0,1,0-1.79A3.41,3.41,0,0,1,58.31,52.78Z"/><path class="cls-24" d="M36.16,93.61c7.84,4.53,20.51,4.53,28.31,0,5.38-3.13,7-7.6,4.94-11.56H65.59c2.22,3.39,1,7.36-3.69,10.09-6.4,3.71-16.79,3.71-23.23,0-4.73-2.73-6-6.71-3.8-10.09H31.08C29,86,30.74,90.48,36.16,93.61Z"/><path class="cls-27" d="M70.24,86.06c0,.2,0,.41-.08.62a4.05,4.05,0,0,1-.12.5,4.27,4.27,0,0,1-.18.61,4.89,4.89,0,0,1-.2.48c-.09.21-.18.43-.29.63l-.27.45c-.14.23-.3.47-.47.7s-.34.44-.53.65a1,1,0,0,1-.13.16c-.26.28-.54.56-.84.83l-.63.51c-.18.15-.35.3-.55.44l-.72.48c-.25.16-.49.33-.76.49a18.53,18.53,0,0,1-1.89,1l-.57.25c-.51.21-1,.41-1.57.59l-.58.2c-.34.11-.68.2-1,.3l-.79.21L57,96.34l-.77.16c-.75.13-1.51.23-2.27.31l-.71.06c-.46,0-.91.08-1.37.1L51,97H49.89L49,97l-1-.06L47,96.84l-1-.12c-.3,0-.6-.08-.9-.12l-1.06-.19-.82-.16L42,95.94l-.68-.18c-.74-.22-1.45-.45-2.15-.73l-1-.44-.48-.21c-.51-.24-1-.5-1.47-.77-3.95-2.29-5.93-5.27-5.92-8.26l-.11,39.3c0,3,2,6,5.92,8.25.46.27,1,.53,1.46.77l.54.23c.29.13.58.27.89.39l.1,0a21.92,21.92,0,0,0,2.16.73l.17.06c.16,0,.33.07.49.12.42.11.85.22,1.27.31l.33.08c.16,0,.32,0,.48.09.36.06.71.13,1.07.18l.43.08.47.05,1,.12c.15,0,.3,0,.46,0l.43,0,1,0,.5,0c.13,0,.27,0,.4,0,.37,0,.74,0,1.11,0h.53l.33,0c.46,0,.91,0,1.37-.1l.53,0,.15,0c.77-.08,1.54-.19,2.29-.31l.11,0c.21,0,.42-.09.62-.13.38-.07.76-.15,1.13-.24s.52-.14.77-.21.71-.19,1-.3l.22-.06.35-.13c.54-.18,1.06-.39,1.58-.6l.57-.24c.65-.3,1.29-.61,1.89-1l.24-.14.52-.34c.24-.16.49-.32.72-.49l.57-.45L67,131l.13-.11a9.9,9.9,0,0,0,.72-.73L68,130l.39-.46c.05-.06.09-.14.14-.2.17-.23.32-.46.47-.7s.14-.19.2-.29a.69.69,0,0,1,.07-.15c.1-.21.19-.41.28-.62s.13-.24.18-.37a.61.61,0,0,0,0-.13,4.11,4.11,0,0,0,.17-.57c0-.14.1-.28.13-.43a.41.41,0,0,1,0-.11c0-.2,0-.41.07-.61s0-.28,0-.43a1,1,0,0,0,0-.17l.11-39.29C70.29,85.66,70.26,85.86,70.24,86.06Z"/><path class="cls-28" d="M149.51,176.39c-16,9.24-16.1,24.25-.19,33.5s41.81,9.24,57.83,0,16.11-24.25.19-33.49S165.52,167.14,149.51,176.39Z"/><path class="cls-29" d="M140.55,111.24S137,115.8,136.73,117s-1.74,6.27.79,9.7c1.36,1.85,2.09-.76,2.44-4.15.15-1.54-.07-2.71,1.93-4.37a17.6,17.6,0,0,0,3.7-4.88C146.21,112,140.55,111.24,140.55,111.24Z"/><path class="cls-30" d="M145.52,113.57c-.61,1.26-2.39,3.45-2.66,5.31-.33,2.24-2.75,2.13-2.9,3.67-.28,2.64-.85,4.83-1.68,4.78.35-2-2-3.49.49-8.12a32.92,32.92,0,0,1,5.59-6.65C145.37,113,145.76,113.07,145.52,113.57Z"/><path class="cls-29" d="M144.11,112.53s-.69,6.44-1.19,8.37-1.64,3-1.87,2.63.9-6.19-1.19-6C138.75,117.59,143.8,113.43,144.11,112.53Z"/><path class="cls-31" d="M159.1,60.42s-6.48-1.43-9,11.44-2.46,17.88-4.3,22.31-6.73,18.76-6.73,18.76,4.1.15,5.7,3.21c0,0,10.38-17.76,12.39-25.55S165.86,63.89,159.1,60.42Z"/><path class="cls-32" d="M145.78,94.17c1.84-4.43,1.77-9.43,4.3-22.31,1.38-7,3.92-9.76,6-10.84,6.14,4-.36,22.31-2.33,30-1.49,5.83-7.49,17.77-10.43,23.45a7.43,7.43,0,0,0-4.24-1.5S143.93,98.6,145.78,94.17Z"/><path class="cls-33" d="M177,178.67s1.71,4,0,5-1.95,2.17-4.7,1.95-2.35.68-3.3,1.71-10.67,5.28-12.5,3.21,3.32-4.48,5.14-5.68,6.19-6,6.31-7.38S177,178.67,177,178.67Z"/><path class="cls-34" d="M177,183.71c-1.72,1-1.95,2.17-4.7,1.95s-2.35.68-3.3,1.71-10.67,5.28-12.5,3.21a1.54,1.54,0,0,1,.15-2.18c.68.13,1.62.3,2.86.51,2.86.5,6.55-2.8,8-4s3.22-.75,5.69-1.15,2.11-4.17,2.11-4.17l1.82-.63C177.48,179.82,178.49,182.83,177,183.71Z"/><path class="cls-33" d="M194.4,191.68s.72,4.74-1.1,7.3-5.82,7-7.55,6.81-2-1-2-1a17.21,17.21,0,0,1,.54-7.69,24.19,24.19,0,0,0,1.36-5.43Z"/><path class="cls-34" d="M193.3,199c-1.6,2.26-4.89,6-6.83,6.69,2.57-3.31-1.29-2.62,1.61-4.19,4-2.16,1.44-4,3.21-4.47s.47-4.89.47-4.89l1-.44h1.67S195.12,196.42,193.3,199Z"/><path class="cls-35" d="M173.33,114.6s-8.18-.88-10.91-6.94a200.7,200.7,0,0,0,.91,28.86c1.65,15.49,3,42.74,3,42.74s5.29,5,10.76,0c0,0,1.54-18,0-28,0,0,1-17.46-.69-26.18S173.33,114.6,173.33,114.6Z"/><path class="cls-36" d="M166.36,179.26s-1.38-27.25-3-42.74a246.74,246.74,0,0,1-1.08-30.88c2,4.44,7.11,8.12,9.59,8.7-.2,5.91-.75,23.34-.66,29.13.08,5.52,1.16,28.35,1.62,37.94A8.68,8.68,0,0,1,166.36,179.26Z"/><path class="cls-35" d="M192.55,113.67s.79,9.07,1,23.14,1.2,19.39,1.54,21.54,1.54,25.72.86,32.6c0,0-4.45,6.87-11.45,0,0,0-1.19-24.15-2.39-29.65s-7.89-32.2-10.59-41.79c-1.2-4.23-1.47-5.84-1.47-5.84S181.79,122.15,192.55,113.67Z"/><path class="cls-36" d="M184.46,191s-1.19-24.15-2.39-29.65-7.89-32.2-10.59-41.79a22.56,22.56,0,0,0-4-7.49s7.75,5.43,14.45,5.42c.29,2.06,3.13,21.78,3.8,30.4s6.51,38.62,4.93,46.16C189,194.05,186.87,193.31,184.46,191Z"/><path class="cls-32" d="M174.25,58.65s13.32,4.5,13.76,5.41,4,2.73,1,14.29c0,0-4.42,12.73.4,24.1a76.34,76.34,0,0,0,4.91,9.93s-4.3,9-20.59,5.55c-3.29-.69-9.15-4.18-11.24-7.37a81.65,81.65,0,0,0-3.7-21.84c-3.67-11.53-7-26.69-.6-29.72C158.2,59,159.6,56.7,174.25,58.65Z"/><path class="cls-29" d="M171,48.62s-1.47,6.81,2.78,9.38c2.37,1.42.53,7.72-6,9.8,0,0-3.11.4-3.22-.74-.25-2.59-1.7-3.55-3.41-5S171,48.62,171,48.62Z"/><path class="cls-37" d="M173.78,58a1.74,1.74,0,0,1,.66.71c-3.33-1.51-8,.08-8,.08l3.45-9c.19-.21.35-.39.5-.54l.41.52C170.62,51.81,170.61,56.08,173.78,58Z"/><path class="cls-29" d="M171.14,45.07s1.23,7.77-2.45,12.94c-3.25,4.59-7.61,8.46-10.58,3.6-2.35-3.86-8.49-13.65-5.65-17.19,3.68-4.57,4.1-8.62,10.34-8.72C162.8,35.7,170.17,36.15,171.14,45.07Z"/><path class="cls-30" d="M171.14,45.07a17.26,17.26,0,0,1-2.39,13,21.35,21.35,0,0,1-3.29,3.81c1.65-2.58,1.68-3.2,2.67-6S165,55.7,166,49.2c.33-2.2-3.83,2.09-5,2.5-6.8,2.44-7.8-1.61-8.57-3.19a13.34,13.34,0,0,1-.2-2.21l.16-1.47.09-.41a24.54,24.54,0,0,1,1.26-3.25c2.92-1.06,11.19-4.06,11.35-4.08s2.28,1.35,4.3,2.67A11.76,11.76,0,0,1,171.14,45.07Z"/><path class="cls-38" d="M170.87,53.17s3.52-7.13-1.15-13.58a9,9,0,0,0-10-3.66c-3.22.82-8.41,3.4-8.35,10.49,0,2.21,1.53,6.15,8.35,1.24,1-.7,3.7-2.2,5.07-1.67s2.17,2.21,2.24,3.86c.08,1.45,1.26,1.15,1.31.82s.07-4.57,2-3.66C172.13,47.82,170.91,52.86,170.87,53.17Z"/><path class="cls-39" d="M170.87,53.17c0-.31,1.26-5.35-.48-6.16-1.94-.91-2,3.33-2,3.66s-1.23.63-1.31-.82c-.07-1.65-.85-3.34-2.24-3.86s-3.6.92-5.07,1.67c.94-1.29,3.34-2.55,3.42-5,.1-3.27,1.27-5.23,2.67-6.34a9.34,9.34,0,0,1,3.87,3.26C174.39,46,170.87,53.17,170.87,53.17Z"/><path class="cls-38" d="M160.17,47.75a10.83,10.83,0,0,0,4.14-7.64,4.28,4.28,0,0,1,1.93-3.59s-3.64-2.42-9.53.37c-2.77,1.3-4.81,5.13-5.21,6C149.42,47.15,152.34,53.67,160.17,47.75Z"/><path class="cls-31" d="M188,64.06c.46.9,4,2.73,1,14.29,0,0-4.42,12.73.4,24.1a76.34,76.34,0,0,0,4.91,9.93s-2.15,4.43-9.1,5.87c-3.93-9.81-5.87-28.23-7.63-40.84-1.12-8.12,1.81-13.17,4.47-16C185.06,62.53,187.82,63.65,188,64.06Z"/><path class="cls-32" d="M179.94,66.28c.45-3.54,5.16-7.66,9.3-.67s11.86,29.18,9,32.4c-1.11,1.26-3.09,2.79-4.93,1.55-2.88-1.93-5.76-7.89-6.87-11.28C184.61,82.74,179.51,69.6,179.94,66.28Z"/><polygon class="cls-40" points="109.27 184.34 135.77 165.29 129.99 168.67 109.27 184.34"/><polygon class="cls-18" points="109.27 184.34 129.99 168.67 116.63 155.99 109.27 184.34"/><polygon class="cls-41" points="194.19 76.51 129.99 168.67 135.77 165.29 199.91 73.08 194.19 76.51"/><polygon class="cls-18" points="184.58 71.92 120.38 164.05 129.99 168.67 194.19 76.51 184.58 71.92"/><polygon class="cls-41" points="180.76 63.79 116.63 155.99 120.38 164.05 184.58 71.92 180.76 63.79"/><polygon class="cls-42" points="184.58 71.92 194.19 76.51 199.91 73.08 196.09 65.01 186.49 60.36 180.76 63.79 184.58 71.92"/><polygon class="cls-18" points="188.5 70 192.72 72.03 195.23 70.57 193.51 66.98 189.32 64.91 186.81 66.41 188.5 70"/><polygon class="cls-41" points="109.27 184.34 120.38 164.05 116.63 155.99 109.27 184.34"/><polygon class="cls-43" points="111.58 180.22 109.27 184.34 110.75 178.63 111.58 180.22"/><polygon class="cls-44" points="111.58 180.22 113.61 181.27 109.27 184.34 111.58 180.22"/><path class="cls-30" d="M173.56,103.25s-4.91.55-5.95-.18-2.37.48-1.06,1.23a7.35,7.35,0,0,0,3,.78s-5.46,1.86-6.4.37.64,4.48,3.44,4.9,5.77,1.39,10.12-4.26A4.93,4.93,0,0,0,173.56,103.25Z"/><path class="cls-32" d="M198.57,97s-7.19,9.63-23.94,11.53a5.84,5.84,0,0,0-1.87-5.09S200.27,80.1,198.57,97Z"/><path class="cls-45" d="M198.86,176.09c12.64,6.56,12.59,17.07.14,23.56s-32.69,6.56-45.34,0-12.61-17.07-.15-23.56S186.32,169.6,198.86,176.09Z"/><g class="cls-46"><path class="cls-47" d="M201.69,155.35c14.39,7.47,14.34,19.44.15,26.83s-37.22,7.47-51.62,0-14.35-19.44-.17-26.83S187.41,148,201.69,155.35Z"/></g><g class="cls-48"><path class="cls-49" d="M204.52,134.61c16.15,8.37,16.08,21.8.17,30.1s-41.75,8.37-57.9,0-16.11-21.81-.2-30.1S188.5,126.32,204.52,134.61Z"/></g><g class="cls-50"><path class="cls-51" d="M207.35,113.87c17.9,9.28,17.83,24.17.19,33.37s-46.29,9.28-64.19,0c-17.75-9.2-17.86-24.18-.22-33.37S189.58,104.67,207.35,113.87Z"/></g><g class="cls-52"><path class="cls-53" d="M210.17,93.13c19.66,10.19,19.58,26.54.21,36.63s-50.81,10.2-70.47,0c-19.49-10.09-19.61-26.54-.24-36.63S190.67,83,210.17,93.13Z"/></g><g class="cls-54"><path class="cls-55" d="M213,72.39c21.42,11.1,21.33,28.91.23,39.9s-55.35,11.11-76.76,0c-21.23-11-21.36-28.9-.26-39.9S191.76,61.39,213,72.39Z"/></g><g class="cls-56"><path class="cls-57" d="M215.83,51.65c23.17,12,23.07,31.27.25,43.17s-59.89,12-83.05,0c-23-11.9-23.11-31.27-.28-43.17S192.85,39.75,215.83,51.65Z"/></g><g class="cls-58"><path class="cls-59" d="M198.86,176.2c12.64,6.56,12.59,17.07.14,23.56s-32.69,6.56-45.34,0-12.61-17.07-.15-23.56S186.32,169.71,198.86,176.2Z"/></g></g></g></svg>